<ttFont>
<head>
    <!-- Most of this table will be recalculated by the compiler -->
    <tableVersion value="1.0"/>
    <fontRevision value="1.001"/>
    <checkSumAdjustment value="0xc16961b5"/>
    <magicNumber value="0x5f0f3cf5"/>
    <flags value="00000000 00000011"/>
    <unitsPerEm value="1000"/>
    <created value="Thu Aug 23 14:06:59 2018"/>
    <modified value="Sun Aug 26 15:29:29 2018"/>
    <xMin value="-161"/>
    <yMin value="-236"/>
    <xMax value="1087"/>
    <yMax value="790"/>
    <macStyle value="00000000 00000010"/>
    <lowestRecPPEM value="6"/>
    <fontDirectionHint value="2"/>
    <indexToLocFormat value="0"/>
    <glyphDataFormat value="0"/>
  </head>
    <TTGlyph name=".notdef" xMin="50" yMin="-223" xMax="450" yMax="735">
      <contour>
        <pt x="50" y="-223" on="1"/>
        <pt x="450" y="-223" on="1"/>
        <pt x="450" y="735" on="1"/>
        <pt x="50" y="735" on="1"/>
      </contour>
      <contour>
        <pt x="100" y="-173" on="1"/>
        <pt x="100" y="685" on="1"/>
        <pt x="400" y="685" on="1"/>
        <pt x="400" y="-173" on="1"/>
      </contour>
    </TTGlyph>
    <TTGlyph name="uni0021" xMin="50" yMin="-6" xMax="283" yMax="735">
      <contour>
        <pt x="283" y="735" on="1"/>
        <pt x="172" y="735" on="1"/>
        <pt x="160" y="667" on="0"/>
        <pt x="149" y="553" on="0"/>
        <pt x="140" y="438" on="0"/>
        <pt x="125" y="303" on="0"/>
        <pt x="109" y="214" on="1"/>
        <pt x="162" y="214" on="1"/>
        <pt x="179" y="301" on="0"/>
        <pt x="212" y="430" on="0"/>
        <pt x="243" y="542" on="0"/>
        <pt x="271" y="660" on="0"/>
      </contour>
      <contour>
        <pt x="187" y="57" on="1"/>
        <pt x="187" y="29" on="0"/>
        <pt x="149" y="-6" on="0"/>
        <pt x="118" y="-6" on="1"/>
        <pt x="88" y="-6" on="0"/>
        <pt x="50" y="29" on="0"/>
        <pt x="50" y="57" on="1"/>
        <pt x="50" y="86" on="0"/>
        <pt x="88" y="121" on="0"/>
        <pt x="118" y="121" on="1"/>
        <pt x="149" y="121" on="0"/>
        <pt x="187" y="86" on="0"/>
      </contour>
    </TTGlyph>
    <TTGlyph name="uni0022" xMin="75" yMin="475" xMax="325" yMax="710">
      <component glyphName="uni0027" x="0" y="0" flags="0x4"/>
      <component glyphName="uni0027" x="136" y="0" flags="0x4"/>
    </TTGlyph>
    <TTGlyph name="uni0023" xMin="40" yMin="0" xMax="608" yMax="750">
      <contour>
        <pt x="91" y="0" on="1"/>
        <pt x="277" y="750" on="1"/>
        <pt x="340" y="750" on="1"/>
        <pt x="154" y="0" on="1"/>
      </contour>
      <contour>
        <pt x="40" y="245" on="1"/>
        <pt x="40" y="315" on="1"/>
        <pt x="552" y="315" on="1"/>
        <pt x="552" y="245" on="1"/>
      </contour>
      <contour>
        <pt x="96" y="455" on="1"/>
        <pt x="96" y="525" on="1"/>
        <pt x="608" y="525" on="1"/>
        <pt x="608" y="455" on="1"/>
      </contour>
      <contour>
        <pt x="291" y="0" on="1"/>
        <pt x="475" y="750" on="1"/>
        <pt x="540" y="750" on="1"/>
        <pt x="354" y="0" on="1"/>
      </contour>
    </TTGlyph>
    <TTGlyph name="uni0024" xMin="4" yMin="-120" xMax="548" yMax="790">
      <contour>
        <pt x="501" y="209" on="1"/>
        <pt x="501" y="150" on="0"/>
        <pt x="442" y="61" on="0"/>
        <pt x="338" y="12" on="0"/>
        <pt x="270" y="12" on="1"/>
        <pt x="209" y="12" on="0"/>
        <pt x="103" y="45" on="0"/>
        <pt x="25" y="100" on="0"/>
        <pt x="4" y="131" on="1"/>
        <pt x="19" y="218" on="1"/>
        <pt x="114" y="218" on="1"/>
        <pt x="96" y="111" on="1"/>
        <pt x="85" y="113" on="0"/>
        <pt x="69" y="129" on="0"/>
        <pt x="60" y="152" on="0"/>
        <pt x="60" y="179" on="0"/>
        <pt x="66" y="191" on="1"/>
        <pt x="78" y="153" on="0"/>
        <pt x="137" y="98" on="0"/>
        <pt x="222" y="69" on="0"/>
        <pt x="272" y="69" on="1"/>
        <pt x="341" y="69" on="0"/>
        <pt x="419" y="137" on="0"/>
        <pt x="419" y="198" on="1"/>
        <pt x="419" y="228" on="0"/>
        <pt x="393" y="271" on="0"/>
        <pt x="350" y="303" on="0"/>
        <pt x="295" y="330" on="0"/>
        <pt x="266" y="343" on="1"/>
        <pt x="227" y="361" on="0"/>
        <pt x="154" y="407" on="0"/>
        <pt x="108" y="474" on="0"/>
        <pt x="108" y="524" on="1"/>
        <pt x="108" y="577" on="0"/>
        <pt x="162" y="655" on="0"/>
        <pt x="263" y="698" on="0"/>
        <pt x="335" y="698" on="1"/>
        <pt x="390" y="698" on="0"/>
        <pt x="476" y="674" on="0"/>
        <pt x="535" y="637" on="0"/>
        <pt x="548" y="619" on="1"/>
        <pt x="531" y="522" on="1"/>
        <pt x="441" y="522" on="1"/>
        <pt x="458" y="616" on="1"/>
        <pt x="467" y="615" on="0"/>
        <pt x="482" y="602" on="0"/>
        <pt x="491" y="585" on="0"/>
        <pt x="491" y="568" on="0"/>
        <pt x="486" y="561" on="1"/>
        <pt x="477" y="585" on="0"/>
        <pt x="439" y="621" on="0"/>
        <pt x="377" y="642" on="0"/>
        <pt x="332" y="642" on="1"/>
        <pt x="260" y="642" on="0"/>
        <pt x="185" y="586" on="0"/>
        <pt x="185" y="534" on="1"/>
        <pt x="185" y="499" on="0"/>
        <pt x="225" y="452" on="0"/>
        <pt x="289" y="418" on="0"/>
        <pt x="325" y="402" on="1"/>
        <pt x="368" y="383" on="0"/>
        <pt x="448" y="333" on="0"/>
        <pt x="501" y="262" on="0"/>
      </contour>
      <contour>
        <pt x="336" y="790" on="1"/>
        <pt x="396" y="790" on="1"/>
        <pt x="376" y="674" on="1"/>
        <pt x="374" y="665" on="1"/>
        <pt x="264" y="40" on="1"/>
        <pt x="262" y="31" on="1"/>
        <pt x="236" y="-120" on="1"/>
        <pt x="176" y="-120" on="1"/>
        <pt x="204" y="39" on="1"/>
        <pt x="205" y="47" on="1"/>
        <pt x="314" y="666" on="1"/>
        <pt x="316" y="676" on="1"/>
      </contour>
    </TTGlyph>
    <TTGlyph name="uni0025" xMin="2" yMin="-10" xMax="768" yMax="720">
      <contour>
        <pt x="223" y="720" on="1"/>
        <pt x="265" y="720" on="0"/>
        <pt x="327" y="683" on="0"/>
        <pt x="362" y="617" on="0"/>
        <pt x="362" y="571" on="1"/>
        <pt x="362" y="523" on="0"/>
        <pt x="323" y="436" on="0"/>
        <pt x="246" y="382" on="0"/>
        <pt x="190" y="382" on="1"/>
        <pt x="149" y="382" on="0"/>
        <pt x="86" y="419" on="0"/>
        <pt x="51" y="486" on="0"/>
        <pt x="51" y="531" on="1"/>
        <pt x="51" y="580" on="0"/>
        <pt x="90" y="666" on="0"/>
        <pt x="167" y="720" on="0"/>
      </contour>
      <contour>
        <pt x="194" y="429" on="1"/>
        <pt x="212" y="429" on="0"/>
        <pt x="242" y="445" on="0"/>
        <pt x="264" y="473" on="0"/>
        <pt x="280" y="512" on="0"/>
        <pt x="288" y="557" on="0"/>
        <pt x="288" y="581" on="1"/>
        <pt x="288" y="626" on="0"/>
        <pt x="253" y="673" on="0"/>
        <pt x="219" y="673" on="1"/>
        <pt x="201" y="673" on="0"/>
        <pt x="171" y="657" on="0"/>
        <pt x="149" y="629" on="0"/>
        <pt x="133" y="590" on="0"/>
        <pt x="125" y="545" on="0"/>
        <pt x="125" y="521" on="1"/>
        <pt x="125" y="476" on="0"/>
        <pt x="160" y="429" on="0"/>
      </contour>
      <contour>
        <pt x="552" y="-10" on="1"/>
        <pt x="511" y="-10" on="0"/>
        <pt x="448" y="27" on="0"/>
        <pt x="413" y="94" on="0"/>
        <pt x="413" y="139" on="1"/>
        <pt x="413" y="188" on="0"/>
        <pt x="452" y="274" on="0"/>
        <pt x="529" y="328" on="0"/>
        <pt x="585" y="328" on="1"/>
        <pt x="627" y="328" on="0"/>
        <pt x="689" y="291" on="0"/>
        <pt x="724" y="225" on="0"/>
        <pt x="724" y="179" on="1"/>
        <pt x="724" y="131" on="0"/>
        <pt x="685" y="44" on="0"/>
        <pt x="608" y="-10" on="0"/>
      </contour>
      <contour>
        <pt x="581" y="281" on="1"/>
        <pt x="563" y="281" on="0"/>
        <pt x="533" y="265" on="0"/>
        <pt x="511" y="237" on="0"/>
        <pt x="495" y="198" on="0"/>
        <pt x="487" y="153" on="0"/>
        <pt x="487" y="129" on="1"/>
        <pt x="487" y="84" on="0"/>
        <pt x="522" y="37" on="0"/>
        <pt x="556" y="37" on="1"/>
        <pt x="574" y="37" on="0"/>
        <pt x="604" y="53" on="0"/>
        <pt x="626" y="81" on="0"/>
        <pt x="642" y="120" on="0"/>
        <pt x="650" y="165" on="0"/>
        <pt x="650" y="189" on="1"/>
        <pt x="650" y="234" on="0"/>
        <pt x="615" y="281" on="0"/>
      </contour>
      <contour>
        <pt x="693" y="710" on="1"/>
        <pt x="768" y="710" on="1"/>
        <pt x="77" y="0" on="1"/>
        <pt x="2" y="0" on="1"/>
      </contour>
    </TTGlyph>
    <TTGlyph name="uni0026" xMin="34" yMin="-10" xMax="717" yMax="718">
      <contour>
        <pt x="291" y="433" on="1"/>
        <pt x="306" y="390" on="1"/>
        <pt x="253" y="377" on="0"/>
        <pt x="175" y="324" on="0"/>
        <pt x="132" y="242" on="0"/>
        <pt x="132" y="182" on="1"/>
        <pt x="132" y="139" on="0"/>
        <pt x="166" y="78" on="0"/>
        <pt x="229" y="45" on="0"/>
        <pt x="273" y="45" on="1"/>
        <pt x="318" y="45" on="0"/>
        <pt x="401" y="84" on="0"/>
        <pt x="472" y="148" on="0"/>
        <pt x="527" y="226" on="0"/>
        <pt x="563" y="306" on="0"/>
        <pt x="569" y="340" on="1"/>
        <pt x="569" y="343" on="0"/>
        <pt x="544" y="347" on="0"/>
        <pt x="510" y="350" on="0"/>
        <pt x="496" y="350" on="1"/>
        <pt x="494" y="350" on="1"/>
        <pt x="502" y="394" on="1"/>
        <pt x="717" y="394" on="1"/>
        <pt x="709" y="350" on="1"/>
        <pt x="707" y="350" on="1"/>
        <pt x="675" y="350" on="0"/>
        <pt x="633" y="333" on="0"/>
        <pt x="621" y="304" on="1"/>
        <pt x="611" y="281" on="0"/>
        <pt x="569" y="203" on="0"/>
        <pt x="506" y="117" on="0"/>
        <pt x="423" y="39" on="0"/>
        <pt x="321" y="-10" on="0"/>
        <pt x="260" y="-10" on="1"/>
        <pt x="190" y="-10" on="0"/>
        <pt x="89" y="43" on="0"/>
        <pt x="34" y="134" on="0"/>
        <pt x="34" y="192" on="1"/>
        <pt x="34" y="260" on="0"/>
        <pt x="98" y="359" on="0"/>
        <pt x="214" y="421" on="0"/>
      </contour>
      <contour>
        <pt x="329" y="392" on="1"/>
        <pt x="314" y="437" on="1"/>
        <pt x="383" y="452" on="0"/>
        <pt x="457" y="493" on="0"/>
        <pt x="486" y="549" on="0"/>
        <pt x="486" y="585" on="1"/>
        <pt x="486" y="620" on="0"/>
        <pt x="451" y="663" on="0"/>
        <pt x="416" y="663" on="1"/>
        <pt x="371" y="663" on="0"/>
        <pt x="318" y="588" on="0"/>
        <pt x="318" y="520" on="1"/>
        <pt x="318" y="488" on="0"/>
        <pt x="335" y="417" on="0"/>
        <pt x="370" y="340" on="0"/>
        <pt x="422" y="253" on="0"/>
        <pt x="493" y="155" on="0"/>
        <pt x="538" y="99" on="1"/>
        <pt x="557" y="76" on="0"/>
        <pt x="594" y="58" on="0"/>
        <pt x="628" y="58" on="1"/>
        <pt x="650" y="58" on="1"/>
        <pt x="640" y="0" on="1"/>
        <pt x="508" y="0" on="1"/>
        <pt x="462" y="55" on="0"/>
        <pt x="380" y="166" on="0"/>
        <pt x="310" y="274" on="0"/>
        <pt x="259" y="378" on="0"/>
        <pt x="231" y="477" on="0"/>
        <pt x="231" y="523" on="1"/>
        <pt x="231" y="580" on="0"/>
        <pt x="275" y="668" on="0"/>
        <pt x="358" y="718" on="0"/>
        <pt x="418" y="718" on="1"/>
        <pt x="485" y="718" on="0"/>
        <pt x="566" y="648" on="0"/>
        <pt x="566" y="589" on="1"/>
        <pt x="566" y="538" on="0"/>
        <pt x="510" y="459" on="0"/>
        <pt x="404" y="406" on="0"/>
      </contour>
    </TTGlyph>
    <TTGlyph name="uni0027" xMin="75" yMin="475" xMax="189" yMax="710">
      <contour>
        <pt x="189" y="710" on="1"/>
        <pt x="96" y="710" on="1"/>
        <pt x="91" y="681" on="0"/>
        <pt x="89" y="634" on="0"/>
        <pt x="89" y="584" on="0"/>
        <pt x="83" y="521" on="0"/>
        <pt x="75" y="475" on="1"/>
        <pt x="126" y="475" on="1"/>
        <pt x="134" y="520" on="0"/>
        <pt x="152" y="583" on="0"/>
        <pt x="170" y="632" on="0"/>
        <pt x="184" y="680" on="0"/>
      </contour>
    </TTGlyph>
    <TTGlyph name="uni0028" xMin="65" yMin="-130" xMax="423" yMax="750">
      <contour>
        <pt x="155" y="242" on="1"/>
        <pt x="155" y="158" on="0"/>
        <pt x="193" y="15" on="0"/>
        <pt x="251" y="-94" on="0"/>
        <pt x="281" y="-127" on="1"/>
        <pt x="281" y="-130" on="1"/>
        <pt x="213" y="-130" on="1"/>
        <pt x="172" y="-90" on="0"/>
        <pt x="104" y="26" on="0"/>
        <pt x="65" y="169" on="0"/>
        <pt x="65" y="247" on="1"/>
        <pt x="65" y="332" on="0"/>
        <pt x="114" y="487" on="0"/>
        <pt x="197" y="618" on="0"/>
        <pt x="301" y="719" on="0"/>
        <pt x="355" y="750" on="1"/>
        <pt x="423" y="750" on="1"/>
        <pt x="423" y="747" on="1"/>
        <pt x="377" y="711" on="0"/>
        <pt x="282" y="608" on="0"/>
        <pt x="203" y="479" on="0"/>
        <pt x="155" y="328" on="0"/>
      </contour>
    </TTGlyph>
    <TTGlyph name="uni0029" xMin="-62" yMin="-130" xMax="296" yMax="750">
      <component glyphName="uni0028" x="361" y="620" scale="-1.0" flags="0x4"/>
    </TTGlyph>
    <TTGlyph name="uni002A" xMin="38" yMin="350" xMax="400" yMax="710">
      <contour>
        <pt x="63" y="421" on="1"/>
        <pt x="91" y="434" on="0"/>
        <pt x="130" y="460" on="0"/>
        <pt x="182" y="492" on="0"/>
        <pt x="226" y="513" on="1"/>
        <pt x="212" y="546" on="1"/>
        <pt x="167" y="526" on="0"/>
        <pt x="110" y="508" on="0"/>
        <pt x="65" y="496" on="0"/>
        <pt x="38" y="483" on="1"/>
      </contour>
      <contour>
        <pt x="205" y="516" on="1"/>
        <pt x="231" y="545" on="1"/>
        <pt x="195" y="573" on="0"/>
        <pt x="157" y="614" on="0"/>
        <pt x="128" y="647" on="0"/>
        <pt x="106" y="663" on="1"/>
        <pt x="59" y="607" on="1"/>
        <pt x="81" y="590" on="0"/>
        <pt x="120" y="570" on="0"/>
        <pt x="169" y="544" on="0"/>
      </contour>
      <contour>
        <pt x="153" y="350" on="1"/>
        <pt x="223" y="350" on="1"/>
        <pt x="228" y="378" on="0"/>
        <pt x="229" y="424" on="0"/>
        <pt x="231" y="483" on="0"/>
        <pt x="239" y="528" on="1"/>
        <pt x="200" y="532" on="1"/>
        <pt x="192" y="486" on="0"/>
        <pt x="174" y="429" on="0"/>
        <pt x="159" y="382" on="0"/>
      </contour>
      <contour>
        <pt x="286" y="710" on="1"/>
        <pt x="217" y="710" on="1"/>
        <pt x="213" y="682" on="0"/>
        <pt x="212" y="636" on="0"/>
        <pt x="209" y="578" on="0"/>
        <pt x="200" y="532" on="1"/>
        <pt x="239" y="528" on="1"/>
        <pt x="246" y="563" on="0"/>
        <pt x="259" y="610" on="0"/>
        <pt x="272" y="648" on="0"/>
        <pt x="282" y="685" on="0"/>
      </contour>
      <contour>
        <pt x="333" y="396" on="1"/>
        <pt x="379" y="452" on="1"/>
        <pt x="358" y="470" on="0"/>
        <pt x="319" y="489" on="0"/>
        <pt x="271" y="516" on="0"/>
        <pt x="235" y="543" on="1"/>
        <pt x="209" y="514" on="1"/>
        <pt x="245" y="486" on="0"/>
        <pt x="283" y="446" on="0"/>
        <pt x="312" y="413" on="0"/>
      </contour>
      <contour>
        <pt x="228" y="513" on="1"/>
        <pt x="273" y="534" on="0"/>
        <pt x="329" y="551" on="0"/>
        <pt x="374" y="564" on="0"/>
        <pt x="400" y="576" on="1"/>
        <pt x="376" y="638" on="1"/>
        <pt x="349" y="627" on="0"/>
        <pt x="310" y="600" on="0"/>
        <pt x="259" y="567" on="0"/>
        <pt x="214" y="545" on="1"/>
      </contour>
    </TTGlyph>
    <TTGlyph name="uni002B" xMin="67" yMin="129" xMax="493" yMax="553">
      <contour>
        <pt x="279" y="553" on="1"/>
        <pt x="353" y="553" on="1"/>
        <pt x="279" y="129" on="1"/>
        <pt x="205" y="129" on="1"/>
      </contour>
      <contour>
        <pt x="493" y="374" on="1"/>
        <pt x="481" y="308" on="1"/>
        <pt x="67" y="308" on="1"/>
        <pt x="79" y="374" on="1"/>
      </contour>
    </TTGlyph>
    <TTGlyph name="uni002C" xMin="10" yMin="-163" xMax="211" yMax="119">
      <contour>
        <pt x="68" y="-163" on="1"/>
        <pt x="10" y="-120" on="1"/>
        <pt x="66" y="-92" on="0"/>
        <pt x="145" y="-28" on="0"/>
        <pt x="152" y="5" on="1"/>
        <pt x="174" y="5" on="1"/>
        <pt x="168" y="-2" on="0"/>
        <pt x="152" y="-7" on="0"/>
        <pt x="138" y="-7" on="1"/>
        <pt x="107" y="-7" on="0"/>
        <pt x="69" y="27" on="0"/>
        <pt x="69" y="55" on="1"/>
        <pt x="69" y="84" on="0"/>
        <pt x="109" y="119" on="0"/>
        <pt x="138" y="119" on="1"/>
        <pt x="174" y="119" on="0"/>
        <pt x="211" y="76" on="0"/>
        <pt x="211" y="44" on="1"/>
        <pt x="211" y="10" on="0"/>
        <pt x="180" y="-63" on="0"/>
        <pt x="116" y="-133" on="0"/>
      </contour>
    </TTGlyph>
    <TTGlyph name="uni002D" xMin="71" yMin="258" xMax="370" yMax="333">
      <contour>
        <pt x="85" y="333" on="1"/>
        <pt x="370" y="333" on="1"/>
        <pt x="356" y="258" on="1"/>
        <pt x="71" y="258" on="1"/>
      </contour>
    </TTGlyph>
    <TTGlyph name="uni002E" xMin="50" yMin="-6" xMax="187" yMax="121">
      <contour>
        <pt x="187" y="57" on="1"/>
        <pt x="187" y="29" on="0"/>
        <pt x="149" y="-6" on="0"/>
        <pt x="118" y="-6" on="1"/>
        <pt x="88" y="-6" on="0"/>
        <pt x="50" y="29" on="0"/>
        <pt x="50" y="57" on="1"/>
        <pt x="50" y="86" on="0"/>
        <pt x="88" y="121" on="0"/>
        <pt x="118" y="121" on="1"/>
        <pt x="149" y="121" on="0"/>
        <pt x="187" y="86" on="0"/>
      </contour>
    </TTGlyph>
    <TTGlyph name="uni002F" xMin="-73" yMin="-128" xMax="532" yMax="750">
      <contour>
        <pt x="457" y="750" on="1"/>
        <pt x="532" y="750" on="1"/>
        <pt x="2" y="-128" on="1"/>
        <pt x="-73" y="-128" on="1"/>
      </contour>
    </TTGlyph>
    <TTGlyph name="uni0030" xMin="33" yMin="-11" xMax="527" yMax="619">
      <contour>
        <pt x="33" y="250" on="1"/>
        <pt x="33" y="319" on="0"/>
        <pt x="72" y="450" on="0"/>
        <pt x="147" y="556" on="0"/>
        <pt x="252" y="619" on="0"/>
        <pt x="318" y="619" on="1"/>
        <pt x="379" y="619" on="0"/>
        <pt x="473" y="556" on="0"/>
        <pt x="527" y="439" on="0"/>
        <pt x="527" y="358" on="1"/>
        <pt x="527" y="289" on="0"/>
        <pt x="488" y="158" on="0"/>
        <pt x="413" y="52" on="0"/>
        <pt x="308" y="-11" on="0"/>
        <pt x="242" y="-11" on="1"/>
        <pt x="181" y="-11" on="0"/>
        <pt x="87" y="52" on="0"/>
        <pt x="33" y="170" on="0"/>
      </contour>
      <contour>
        <pt x="314" y="561" on="1"/>
        <pt x="274" y="561" on="0"/>
        <pt x="210" y="513" on="0"/>
        <pt x="164" y="433" on="0"/>
        <pt x="136" y="334" on="0"/>
        <pt x="131" y="283" on="1"/>
        <pt x="130" y="273" on="0"/>
        <pt x="129" y="253" on="0"/>
        <pt x="128" y="234" on="0"/>
        <pt x="128" y="224" on="1"/>
        <pt x="128" y="139" on="0"/>
        <pt x="186" y="47" on="0"/>
        <pt x="246" y="47" on="1"/>
        <pt x="287" y="47" on="0"/>
        <pt x="350" y="95" on="0"/>
        <pt x="396" y="175" on="0"/>
        <pt x="424" y="274" on="0"/>
        <pt x="429" y="325" on="1"/>
        <pt x="430" y="335" on="0"/>
        <pt x="431" y="355" on="0"/>
        <pt x="432" y="375" on="0"/>
        <pt x="432" y="384" on="1"/>
        <pt x="432" y="469" on="0"/>
        <pt x="374" y="561" on="0"/>
      </contour>
    </TTGlyph>
    <TTGlyph name="uni0031" xMin="51" yMin="0" xMax="467" yMax="609">
      <contour>
        <pt x="316" y="83" on="1"/>
        <pt x="312" y="61" on="0"/>
        <pt x="372" y="47" on="0"/>
        <pt x="425" y="47" on="1"/>
        <pt x="467" y="47" on="1"/>
        <pt x="458" y="0" on="1"/>
        <pt x="51" y="0" on="1"/>
        <pt x="60" y="47" on="1"/>
        <pt x="112" y="47" on="1"/>
        <pt x="161" y="47" on="0"/>
        <pt x="219" y="61" on="0"/>
        <pt x="223" y="83" on="1"/>
        <pt x="303" y="537" on="1"/>
        <pt x="322" y="548" on="1"/>
        <pt x="309" y="525" on="0"/>
        <pt x="245" y="491" on="0"/>
        <pt x="162" y="472" on="0"/>
        <pt x="118" y="473" on="1"/>
        <pt x="128" y="533" on="1"/>
        <pt x="177" y="534" on="0"/>
        <pt x="259" y="551" on="0"/>
        <pt x="324" y="584" on="0"/>
        <pt x="346" y="609" on="1"/>
        <pt x="409" y="609" on="1"/>
      </contour>
    </TTGlyph>
    <TTGlyph name="uni0032" xMin="-9" yMin="0" xMax="506" yMax="618">
      <contour>
        <pt x="-9" y="0" on="1"/>
        <pt x="7" y="91" on="1"/>
        <pt x="87" y="136" on="0"/>
        <pt x="233" y="221" on="0"/>
        <pt x="346" y="307" on="0"/>
        <pt x="412" y="401" on="0"/>
        <pt x="412" y="455" on="1"/>
        <pt x="412" y="504" on="0"/>
        <pt x="349" y="559" on="0"/>
        <pt x="293" y="559" on="1"/>
        <pt x="250" y="559" on="0"/>
        <pt x="183" y="537" on="0"/>
        <pt x="138" y="507" on="0"/>
        <pt x="127" y="496" on="1"/>
        <pt x="129" y="509" on="0"/>
        <pt x="155" y="548" on="0"/>
        <pt x="179" y="549" on="1"/>
        <pt x="162" y="429" on="1"/>
        <pt x="74" y="429" on="1"/>
        <pt x="94" y="554" on="1"/>
        <pt x="113" y="569" on="0"/>
        <pt x="170" y="598" on="0"/>
        <pt x="248" y="618" on="0"/>
        <pt x="296" y="618" on="1"/>
        <pt x="403" y="618" on="0"/>
        <pt x="506" y="528" on="0"/>
        <pt x="506" y="449" on="1"/>
        <pt x="506" y="386" on="0"/>
        <pt x="423" y="276" on="0"/>
        <pt x="285" y="178" on="0"/>
        <pt x="117" y="88" on="0"/>
        <pt x="31" y="45" on="1"/>
        <pt x="28" y="48" on="0"/>
        <pt x="28" y="67" on="0"/>
        <pt x="31" y="72" on="1"/>
        <pt x="288" y="72" on="1"/>
        <pt x="350" y="72" on="0"/>
        <pt x="406" y="88" on="0"/>
        <pt x="413" y="113" on="1"/>
        <pt x="436" y="190" on="1"/>
        <pt x="494" y="190" on="1"/>
        <pt x="461" y="0" on="1"/>
      </contour>
    </TTGlyph>
    <TTGlyph name="uni0033" xMin="-11" yMin="-90" xMax="514" yMax="618">
      <contour>
        <pt x="248" y="-90" on="1"/>
        <pt x="180" y="-90" on="0"/>
        <pt x="76" y="-45" on="0"/>
        <pt x="6" y="37" on="0"/>
        <pt x="-11" y="91" on="1"/>
        <pt x="45" y="128" on="1"/>
        <pt x="58" y="89" on="0"/>
        <pt x="111" y="17" on="0"/>
        <pt x="195" y="-30" on="0"/>
        <pt x="252" y="-30" on="1"/>
        <pt x="302" y="-30" on="0"/>
        <pt x="369" y="11" on="0"/>
        <pt x="403" y="80" on="0"/>
        <pt x="403" y="122" on="1"/>
        <pt x="403" y="160" on="0"/>
        <pt x="372" y="220" on="0"/>
        <pt x="297" y="255" on="0"/>
        <pt x="229" y="255" on="1"/>
        <pt x="171" y="255" on="1"/>
        <pt x="181" y="313" on="1"/>
        <pt x="244" y="313" on="1"/>
        <pt x="289" y="313" on="0"/>
        <pt x="356" y="332" on="0"/>
        <pt x="400" y="369" on="0"/>
        <pt x="421" y="422" on="0"/>
        <pt x="421" y="455" on="1"/>
        <pt x="421" y="502" on="0"/>
        <pt x="363" y="558" on="0"/>
        <pt x="304" y="558" on="1"/>
        <pt x="249" y="558" on="0"/>
        <pt x="170" y="518" on="0"/>
        <pt x="145" y="493" on="1"/>
        <pt x="150" y="507" on="0"/>
        <pt x="162" y="525" on="0"/>
        <pt x="182" y="535" on="0"/>
        <pt x="196" y="536" on="1"/>
        <pt x="183" y="432" on="1"/>
        <pt x="95" y="432" on="1"/>
        <pt x="113" y="558" on="1"/>
        <pt x="141" y="578" on="0"/>
        <pt x="241" y="618" on="0"/>
        <pt x="308" y="618" on="1"/>
        <pt x="401" y="618" on="0"/>
        <pt x="514" y="529" on="0"/>
        <pt x="514" y="455" on="1"/>
        <pt x="514" y="405" on="0"/>
        <pt x="458" y="327" on="0"/>
        <pt x="356" y="282" on="0"/>
        <pt x="287" y="282" on="1"/>
        <pt x="283" y="282" on="0"/>
        <pt x="267" y="282" on="0"/>
        <pt x="255" y="283" on="0"/>
        <pt x="259" y="286" on="0"/>
        <pt x="274" y="290" on="1"/>
        <pt x="357" y="284" on="0"/>
        <pt x="454" y="234" on="0"/>
        <pt x="497" y="159" on="0"/>
        <pt x="497" y="113" on="1"/>
        <pt x="497" y="51" on="0"/>
        <pt x="434" y="-40" on="0"/>
        <pt x="322" y="-90" on="0"/>
      </contour>
    </TTGlyph>
    <TTGlyph name="uni0034" xMin="2" yMin="-77" xMax="537" yMax="609">
      <contour>
        <pt x="2" y="112" on="1"/>
        <pt x="15" y="185" on="1"/>
        <pt x="373" y="609" on="1"/>
        <pt x="440" y="609" on="1"/>
        <pt x="410" y="562" on="1"/>
        <pt x="50" y="135" on="1"/>
        <pt x="43" y="179" on="1"/>
        <pt x="537" y="179" on="1"/>
        <pt x="525" y="112" on="1"/>
      </contour>
      <contour>
        <pt x="374" y="-77" on="1"/>
        <pt x="286" y="-77" on="1"/>
        <pt x="399" y="578" on="1"/>
        <pt x="413" y="609" on="1"/>
        <pt x="492" y="609" on="1"/>
      </contour>
    </TTGlyph>
    <TTGlyph name="uni0035" xMin="-3" yMin="-90" xMax="518" yMax="609">
      <contour>
        <pt x="241" y="-90" on="1"/>
        <pt x="173" y="-90" on="0"/>
        <pt x="75" y="-43" on="0"/>
        <pt x="12" y="36" on="0"/>
        <pt x="-3" y="85" on="1"/>
        <pt x="55" y="120" on="1"/>
        <pt x="66" y="85" on="0"/>
        <pt x="111" y="16" on="0"/>
        <pt x="187" y="-30" on="0"/>
        <pt x="243" y="-30" on="1"/>
        <pt x="282" y="-30" on="0"/>
        <pt x="344" y="-2" on="0"/>
        <pt x="386" y="49" on="0"/>
        <pt x="409" y="120" on="0"/>
        <pt x="409" y="162" on="1"/>
        <pt x="409" y="229" on="0"/>
        <pt x="340" y="306" on="0"/>
        <pt x="275" y="306" on="1"/>
        <pt x="228" y="306" on="0"/>
        <pt x="162" y="269" on="0"/>
        <pt x="139" y="240" on="1"/>
        <pt x="85" y="240" on="1"/>
        <pt x="151" y="609" on="1"/>
        <pt x="518" y="609" on="1"/>
        <pt x="490" y="532" on="1"/>
        <pt x="175" y="532" on="1"/>
        <pt x="211" y="589" on="1"/>
        <pt x="156" y="275" on="1"/>
        <pt x="132" y="281" on="1"/>
        <pt x="157" y="324" on="0"/>
        <pt x="242" y="366" on="0"/>
        <pt x="296" y="366" on="1"/>
        <pt x="360" y="366" on="0"/>
        <pt x="452" y="313" on="0"/>
        <pt x="503" y="220" on="0"/>
        <pt x="503" y="162" on="1"/>
        <pt x="503" y="93" on="0"/>
        <pt x="440" y="-22" on="0"/>
        <pt x="323" y="-90" on="0"/>
      </contour>
    </TTGlyph>
    <TTGlyph name="uni0036" xMin="38" yMin="-10" xMax="525" yMax="740">
      <contour>
        <pt x="267" y="-10" on="1"/>
        <pt x="200" y="-10" on="0"/>
        <pt x="96" y="52" on="0"/>
        <pt x="38" y="164" on="0"/>
        <pt x="38" y="239" on="1"/>
        <pt x="38" y="331" on="0"/>
        <pt x="108" y="500" on="0"/>
        <pt x="237" y="638" on="0"/>
        <pt x="416" y="727" on="0"/>
        <pt x="525" y="740" on="1"/>
        <pt x="525" y="680" on="1"/>
        <pt x="459" y="670" on="0"/>
        <pt x="345" y="621" on="0"/>
        <pt x="250" y="546" on="0"/>
        <pt x="181" y="448" on="0"/>
        <pt x="160" y="389" on="1"/>
        <pt x="147" y="352" on="0"/>
        <pt x="133" y="270" on="0"/>
        <pt x="133" y="226" on="1"/>
        <pt x="133" y="170" on="0"/>
        <pt x="166" y="91" on="0"/>
        <pt x="228" y="50" on="0"/>
        <pt x="269" y="50" on="1"/>
        <pt x="310" y="50" on="0"/>
        <pt x="374" y="96" on="0"/>
        <pt x="414" y="176" on="0"/>
        <pt x="419" y="225" on="1"/>
        <pt x="420" y="233" on="0"/>
        <pt x="421" y="252" on="0"/>
        <pt x="421" y="261" on="1"/>
        <pt x="421" y="300" on="0"/>
        <pt x="399" y="359" on="0"/>
        <pt x="351" y="393" on="0"/>
        <pt x="312" y="393" on="1"/>
        <pt x="254" y="393" on="0"/>
        <pt x="154" y="313" on="0"/>
        <pt x="113" y="244" on="1"/>
        <pt x="112" y="296" on="1"/>
        <pt x="134" y="341" on="0"/>
        <pt x="200" y="412" on="0"/>
        <pt x="283" y="453" on="0"/>
        <pt x="330" y="453" on="1"/>
        <pt x="383" y="453" on="0"/>
        <pt x="469" y="406" on="0"/>
        <pt x="519" y="318" on="0"/>
        <pt x="519" y="256" on="1"/>
        <pt x="519" y="176" on="0"/>
        <pt x="450" y="56" on="0"/>
        <pt x="336" y="-10" on="0"/>
      </contour>
    </TTGlyph>
    <TTGlyph name="uni0037" xMin="79" yMin="-77" xMax="591" yMax="609">
      <contour>
        <pt x="292" y="532" on="1"/>
        <pt x="534" y="532" on="1"/>
        <pt x="525" y="548" on="1"/>
        <pt x="505" y="530" on="0"/>
        <pt x="428" y="449" on="0"/>
        <pt x="334" y="332" on="0"/>
        <pt x="239" y="185" on="0"/>
        <pt x="161" y="15" on="0"/>
        <pt x="139" y="-77" on="1"/>
        <pt x="236" y="-77" on="1"/>
        <pt x="262" y="40" on="0"/>
        <pt x="334" y="214" on="0"/>
        <pt x="422" y="351" on="0"/>
        <pt x="523" y="470" on="0"/>
        <pt x="578" y="533" on="1"/>
        <pt x="591" y="609" on="1"/>
        <pt x="116" y="609" on="1"/>
        <pt x="79" y="399" on="1"/>
        <pt x="132" y="399" on="1"/>
        <pt x="159" y="489" on="1"/>
        <pt x="167" y="516" on="0"/>
        <pt x="228" y="532" on="0"/>
      </contour>
    </TTGlyph>
    <TTGlyph name="uni0038" xMin="17" yMin="-10" xMax="528" yMax="720">
      <contour>
        <pt x="265" y="50" on="1"/>
        <pt x="303" y="50" on="0"/>
        <pt x="360" y="76" on="0"/>
        <pt x="399" y="122" on="0"/>
        <pt x="408" y="152" on="1"/>
        <pt x="413" y="166" on="0"/>
        <pt x="417" y="196" on="0"/>
        <pt x="417" y="212" on="1"/>
        <pt x="417" y="271" on="0"/>
        <pt x="343" y="347" on="0"/>
        <pt x="273" y="347" on="1"/>
        <pt x="212" y="347" on="0"/>
        <pt x="129" y="283" on="0"/>
        <pt x="118" y="229" on="1"/>
        <pt x="117" y="221" on="0"/>
        <pt x="115" y="203" on="0"/>
        <pt x="115" y="194" on="1"/>
        <pt x="115" y="149" on="0"/>
        <pt x="152" y="84" on="0"/>
        <pt x="219" y="50" on="0"/>
      </contour>
      <contour>
        <pt x="261" y="-10" on="1"/>
        <pt x="194" y="-10" on="0"/>
        <pt x="83" y="41" on="0"/>
        <pt x="17" y="133" on="0"/>
        <pt x="17" y="194" on="1"/>
        <pt x="17" y="255" on="0"/>
        <pt x="81" y="341" on="0"/>
        <pt x="194" y="388" on="0"/>
        <pt x="267" y="388" on="1"/>
        <pt x="333" y="388" on="0"/>
        <pt x="446" y="343" on="0"/>
        <pt x="515" y="258" on="0"/>
        <pt x="515" y="196" on="1"/>
        <pt x="515" y="140" on="0"/>
        <pt x="453" y="46" on="0"/>
        <pt x="340" y="-10" on="0"/>
      </contour>
      <contour>
        <pt x="325" y="660" on="1"/>
        <pt x="273" y="660" on="0"/>
        <pt x="211" y="605" on="0"/>
        <pt x="203" y="558" on="1"/>
        <pt x="202" y="551" on="0"/>
        <pt x="201" y="538" on="0"/>
        <pt x="201" y="530" on="1"/>
        <pt x="201" y="492" on="0"/>
        <pt x="229" y="436" on="0"/>
        <pt x="281" y="405" on="0"/>
        <pt x="317" y="405" on="1"/>
        <pt x="365" y="405" on="0"/>
        <pt x="429" y="466" on="0"/>
        <pt x="436" y="515" on="1"/>
        <pt x="437" y="522" on="0"/>
        <pt x="438" y="536" on="0"/>
        <pt x="438" y="543" on="1"/>
        <pt x="438" y="597" on="0"/>
        <pt x="378" y="660" on="0"/>
      </contour>
      <contour>
        <pt x="327" y="720" on="1"/>
        <pt x="385" y="720" on="0"/>
        <pt x="476" y="675" on="0"/>
        <pt x="528" y="597" on="0"/>
        <pt x="528" y="545" on="1"/>
        <pt x="528" y="506" on="0"/>
        <pt x="498" y="441" on="0"/>
        <pt x="442" y="392" on="0"/>
        <pt x="362" y="366" on="0"/>
        <pt x="312" y="366" on="1"/>
        <pt x="254" y="366" on="0"/>
        <pt x="163" y="412" on="0"/>
        <pt x="111" y="491" on="0"/>
        <pt x="111" y="542" on="1"/>
        <pt x="111" y="593" on="0"/>
        <pt x="166" y="673" on="0"/>
        <pt x="264" y="720" on="0"/>
      </contour>
    </TTGlyph>
    <TTGlyph name="uni0039" xMin="35" yMin="-92" xMax="522" yMax="619">
      <contour>
        <pt x="35" y="-92" on="1"/>
        <pt x="35" y="-32" on="1"/>
        <pt x="109" y="-29" on="0"/>
        <pt x="229" y="7" on="0"/>
        <pt x="320" y="70" on="0"/>
        <pt x="385" y="159" on="0"/>
        <pt x="403" y="214" on="1"/>
        <pt x="411" y="238" on="0"/>
        <pt x="422" y="290" on="0"/>
        <pt x="427" y="347" on="0"/>
        <pt x="427" y="376" on="1"/>
        <pt x="427" y="468" on="0"/>
        <pt x="353" y="559" on="0"/>
        <pt x="288" y="559" on="1"/>
        <pt x="232" y="559" on="0"/>
        <pt x="156" y="477" on="0"/>
        <pt x="148" y="411" on="1"/>
        <pt x="147" y="403" on="0"/>
        <pt x="146" y="385" on="0"/>
        <pt x="146" y="376" on="1"/>
        <pt x="146" y="332" on="0"/>
        <pt x="173" y="270" on="0"/>
        <pt x="225" y="237" on="0"/>
        <pt x="262" y="237" on="1"/>
        <pt x="322" y="237" on="0"/>
        <pt x="414" y="311" on="0"/>
        <pt x="448" y="375" on="1"/>
        <pt x="450" y="323" on="1"/>
        <pt x="433" y="283" on="0"/>
        <pt x="374" y="217" on="0"/>
        <pt x="294" y="177" on="0"/>
        <pt x="245" y="177" on="1"/>
        <pt x="190" y="177" on="0"/>
        <pt x="100" y="229" on="0"/>
        <pt x="48" y="320" on="0"/>
        <pt x="48" y="379" on="1"/>
        <pt x="48" y="429" on="0"/>
        <pt x="84" y="516" on="0"/>
        <pt x="149" y="582" on="0"/>
        <pt x="237" y="619" on="0"/>
        <pt x="290" y="619" on="1"/>
        <pt x="357" y="619" on="0"/>
        <pt x="462" y="560" on="0"/>
        <pt x="522" y="446" on="0"/>
        <pt x="522" y="362" on="1"/>
        <pt x="522" y="290" on="0"/>
        <pt x="482" y="157" on="0"/>
        <pt x="403" y="45" on="0"/>
        <pt x="286" y="-40" on="0"/>
        <pt x="131" y="-90" on="0"/>
      </contour>
    </TTGlyph>
    <TTGlyph name="uni003A" xMin="25" yMin="-6" xMax="233" yMax="509">
      <component glyphName="uni002E" x="-25" y="0" flags="0x4"/>
      <component glyphName="uni002E" x="46" y="388" flags="0x4"/>
    </TTGlyph>
    <TTGlyph name="uni003B" xMin="10" yMin="-163" xMax="277" yMax="509">
      <component glyphName="uni002E" x="90" y="388" flags="0x4"/>
      <component glyphName="uni002C" x="0" y="0" flags="0x4"/>
    </TTGlyph>
    <TTGlyph name="uni003D" xMin="52" yMin="205" xMax="508" yMax="447">
      <contour>
        <pt x="508" y="447" on="1"/>
        <pt x="497" y="384" on="1"/>
        <pt x="83" y="384" on="1"/>
        <pt x="94" y="447" on="1"/>
      </contour>
      <contour>
        <pt x="477" y="268" on="1"/>
        <pt x="466" y="205" on="1"/>
        <pt x="52" y="205" on="1"/>
        <pt x="63" y="268" on="1"/>
      </contour>
    </TTGlyph>
    <TTGlyph name="uni003F" xMin="91" yMin="-7" xMax="522" yMax="742">
      <contour>
        <pt x="210" y="372" on="1"/>
        <pt x="282" y="389" on="0"/>
        <pt x="380" y="432" on="0"/>
        <pt x="430" y="505" on="0"/>
        <pt x="430" y="567" on="1"/>
        <pt x="430" y="626" on="0"/>
        <pt x="364" y="682" on="0"/>
        <pt x="307" y="682" on="1"/>
        <pt x="254" y="682" on="0"/>
        <pt x="172" y="639" on="0"/>
        <pt x="143" y="609" on="1"/>
        <pt x="151" y="638" on="0"/>
        <pt x="180" y="665" on="0"/>
        <pt x="200" y="669" on="1"/>
        <pt x="179" y="556" on="1"/>
        <pt x="91" y="556" on="1"/>
        <pt x="113" y="676" on="1"/>
        <pt x="130" y="690" on="0"/>
        <pt x="188" y="721" on="0"/>
        <pt x="265" y="742" on="0"/>
        <pt x="311" y="742" on="1"/>
        <pt x="373" y="742" on="0"/>
        <pt x="468" y="700" on="0"/>
        <pt x="522" y="621" on="0"/>
        <pt x="522" y="565" on="1"/>
        <pt x="522" y="510" on="0"/>
        <pt x="480" y="431" on="0"/>
        <pt x="410" y="376" on="0"/>
        <pt x="322" y="342" on="0"/>
        <pt x="277" y="333" on="1"/>
        <pt x="257" y="215" on="1"/>
        <pt x="183" y="215" on="1"/>
      </contour>
      <contour>
        <pt x="273" y="56" on="1"/>
        <pt x="273" y="28" on="0"/>
        <pt x="235" y="-7" on="0"/>
        <pt x="204" y="-7" on="1"/>
        <pt x="174" y="-7" on="0"/>
        <pt x="136" y="28" on="0"/>
        <pt x="136" y="56" on="1"/>
        <pt x="136" y="85" on="0"/>
        <pt x="174" y="120" on="0"/>
        <pt x="204" y="120" on="1"/>
        <pt x="235" y="120" on="0"/>
        <pt x="273" y="85" on="0"/>
      </contour>
    </TTGlyph>
    <TTGlyph name="uni0040" xMin="40" yMin="-153" xMax="877" yMax="673">
      <contour>
        <pt x="453" y="-153" on="1"/>
        <pt x="366" y="-153" on="0"/>
        <pt x="216" y="-102" on="0"/>
        <pt x="103" y="-5" on="0"/>
        <pt x="40" y="135" on="0"/>
        <pt x="40" y="225" on="1"/>
        <pt x="40" y="321" on="0"/>
        <pt x="112" y="484" on="0"/>
        <pt x="242" y="605" on="0"/>
        <pt x="415" y="673" on="0"/>
        <pt x="517" y="673" on="1"/>
        <pt x="597" y="673" on="0"/>
        <pt x="728" y="629" on="0"/>
        <pt x="825" y="546" on="0"/>
        <pt x="877" y="429" on="0"/>
        <pt x="877" y="355" on="1"/>
        <pt x="877" y="286" on="0"/>
        <pt x="836" y="173" on="0"/>
        <pt x="767" y="92" on="0"/>
        <pt x="680" y="49" on="0"/>
        <pt x="633" y="49" on="1"/>
        <pt x="577" y="49" on="0"/>
        <pt x="524" y="100" on="0"/>
        <pt x="524" y="140" on="1"/>
        <pt x="525" y="145" on="0"/>
        <pt x="522" y="150" on="0"/>
        <pt x="518" y="151" on="1"/>
        <pt x="577" y="381" on="1"/>
        <pt x="591" y="386" on="1"/>
        <pt x="633" y="468" on="1"/>
        <pt x="683" y="468" on="1"/>
        <pt x="613" y="198" on="1"/>
        <pt x="608" y="178" on="0"/>
        <pt x="602" y="152" on="0"/>
        <pt x="602" y="139" on="1"/>
        <pt x="602" y="119" on="0"/>
        <pt x="629" y="99" on="0"/>
        <pt x="653" y="99" on="1"/>
        <pt x="695" y="99" on="0"/>
        <pt x="770" y="164" on="0"/>
        <pt x="817" y="280" on="0"/>
        <pt x="817" y="355" on="1"/>
        <pt x="817" y="435" on="0"/>
        <pt x="746" y="553" on="0"/>
        <pt x="612" y="618" on="0"/>
        <pt x="517" y="618" on="1"/>
        <pt x="426" y="618" on="0"/>
        <pt x="274" y="559" on="0"/>
        <pt x="162" y="453" on="0"/>
        <pt x="100" y="309" on="0"/>
        <pt x="100" y="225" on="1"/>
        <pt x="100" y="150" on="0"/>
        <pt x="155" y="31" on="0"/>
        <pt x="253" y="-54" on="0"/>
        <pt x="381" y="-98" on="0"/>
        <pt x="453" y="-98" on="1"/>
        <pt x="497" y="-98" on="0"/>
        <pt x="572" y="-87" on="0"/>
        <pt x="636" y="-68" on="0"/>
        <pt x="662" y="-57" on="1"/>
        <pt x="672" y="-110" on="1"/>
        <pt x="635" y="-127" on="0"/>
        <pt x="521" y="-153" on="0"/>
      </contour>
      <contour>
        <pt x="399" y="49" on="1"/>
        <pt x="364" y="49" on="0"/>
        <pt x="298" y="82" on="0"/>
        <pt x="257" y="153" on="0"/>
        <pt x="257" y="210" on="1"/>
        <pt x="257" y="255" on="0"/>
        <pt x="287" y="348" on="0"/>
        <pt x="345" y="426" on="0"/>
        <pt x="429" y="474" on="0"/>
        <pt x="483" y="474" on="1"/>
        <pt x="520" y="474" on="0"/>
        <pt x="575" y="448" on="0"/>
        <pt x="612" y="381" on="0"/>
        <pt x="620" y="321" on="1"/>
        <pt x="582" y="303" on="1"/>
        <pt x="579" y="347" on="0"/>
        <pt x="552" y="400" on="0"/>
        <pt x="512" y="424" on="0"/>
        <pt x="486" y="424" on="1"/>
        <pt x="456" y="424" on="0"/>
        <pt x="403" y="384" on="0"/>
        <pt x="364" y="317" on="0"/>
        <pt x="341" y="236" on="0"/>
        <pt x="341" y="194" on="1"/>
        <pt x="341" y="143" on="0"/>
        <pt x="378" y="98" on="0"/>
        <pt x="409" y="98" on="1"/>
        <pt x="451" y="98" on="0"/>
        <pt x="530" y="174" on="0"/>
        <pt x="576" y="241" on="1"/>
        <pt x="596" y="213" on="1"/>
        <pt x="557" y="163" on="0"/>
        <pt x="496" y="89" on="0"/>
        <pt x="437" y="49" on="0"/>
      </contour>
    </TTGlyph>
    <TTGlyph name="uni0041" xMin="-48" yMin="0" xMax="619" yMax="710">
      <contour>
        <pt x="183" y="298" on="1"/>
        <pt x="456" y="298" on="1"/>
        <pt x="450" y="246" on="1"/>
        <pt x="170" y="246" on="1"/>
      </contour>
      <contour>
        <pt x="610" y="0" on="1"/>
        <pt x="352" y="0" on="1"/>
        <pt x="361" y="47" on="1"/>
        <pt x="378" y="47" on="1"/>
        <pt x="397" y="47" on="0"/>
        <pt x="437" y="49" on="0"/>
        <pt x="465" y="54" on="0"/>
        <pt x="465" y="57" on="1"/>
        <pt x="375" y="673" on="1"/>
        <pt x="380" y="710" on="1"/>
        <pt x="455" y="710" on="1"/>
        <pt x="552" y="80" on="1"/>
        <pt x="556" y="57" on="0"/>
        <pt x="586" y="47" on="0"/>
        <pt x="614" y="47" on="1"/>
        <pt x="619" y="47" on="1"/>
      </contour>
      <contour>
        <pt x="-48" y="0" on="1"/>
        <pt x="-39" y="47" on="1"/>
        <pt x="-34" y="47" on="1"/>
        <pt x="-8" y="47" on="0"/>
        <pt x="28" y="59" on="0"/>
        <pt x="40" y="84" on="1"/>
        <pt x="352" y="710" on="1"/>
        <pt x="418" y="710" on="1"/>
        <pt x="100" y="65" on="1"/>
        <pt x="100" y="60" on="0"/>
        <pt x="126" y="51" on="0"/>
        <pt x="164" y="47" on="0"/>
        <pt x="182" y="47" on="1"/>
        <pt x="197" y="47" on="1"/>
        <pt x="188" y="0" on="1"/>
      </contour>
    </TTGlyph>
    <TTGlyph name="uni0042" xMin="-10" yMin="0" xMax="619" yMax="710">
      <contour>
        <pt x="393" y="653" on="1"/>
        <pt x="295" y="653" on="1"/>
        <pt x="250" y="400" on="1"/>
        <pt x="363" y="400" on="1"/>
        <pt x="423" y="400" on="0"/>
        <pt x="494" y="441" on="0"/>
        <pt x="525" y="507" on="0"/>
        <pt x="525" y="546" on="1"/>
        <pt x="525" y="594" on="0"/>
        <pt x="461" y="653" on="0"/>
      </contour>
      <contour>
        <pt x="350" y="344" on="1"/>
        <pt x="240" y="344" on="1"/>
        <pt x="189" y="57" on="1"/>
        <pt x="317" y="57" on="1"/>
        <pt x="389" y="57" on="0"/>
        <pt x="470" y="99" on="0"/>
        <pt x="503" y="171" on="0"/>
        <pt x="503" y="216" on="1"/>
        <pt x="503" y="252" on="0"/>
        <pt x="472" y="310" on="0"/>
        <pt x="405" y="344" on="0"/>
      </contour>
      <contour>
        <pt x="117" y="710" on="1"/>
        <pt x="395" y="710" on="1"/>
        <pt x="470" y="710" on="0"/>
        <pt x="570" y="665" on="0"/>
        <pt x="619" y="590" on="0"/>
        <pt x="619" y="543" on="1"/>
        <pt x="619" y="492" on="0"/>
        <pt x="568" y="412" on="0"/>
        <pt x="464" y="366" on="0"/>
        <pt x="384" y="366" on="1"/>
        <pt x="354" y="388" on="1"/>
        <pt x="437" y="383" on="0"/>
        <pt x="545" y="336" on="0"/>
        <pt x="599" y="261" on="0"/>
        <pt x="599" y="212" on="1"/>
        <pt x="599" y="147" on="0"/>
        <pt x="537" y="51" on="0"/>
        <pt x="408" y="0" on="0"/>
        <pt x="308" y="0" on="1"/>
        <pt x="-10" y="0" on="1"/>
        <pt x="-1" y="47" on="1"/>
        <pt x="10" y="47" on="1"/>
        <pt x="45" y="47" on="0"/>
        <pt x="97" y="60" on="0"/>
        <pt x="101" y="82" on="1"/>
        <pt x="198" y="627" on="1"/>
        <pt x="202" y="647" on="0"/>
        <pt x="160" y="663" on="0"/>
        <pt x="119" y="663" on="1"/>
        <pt x="108" y="663" on="1"/>
      </contour>
    </TTGlyph>
    <TTGlyph name="uni0043" xMin="41" yMin="-10" xMax="696" yMax="720">
      <contour>
        <pt x="403" y="660" on="1"/>
        <pt x="348" y="660" on="0"/>
        <pt x="253" y="609" on="0"/>
        <pt x="180" y="516" on="0"/>
        <pt x="139" y="388" on="0"/>
        <pt x="139" y="311" on="1"/>
        <pt x="139" y="234" on="0"/>
        <pt x="191" y="116" on="0"/>
        <pt x="290" y="50" on="0"/>
        <pt x="358" y="50" on="1"/>
        <pt x="419" y="50" on="0"/>
        <pt x="511" y="102" on="0"/>
        <pt x="577" y="193" on="0"/>
        <pt x="598" y="251" on="1"/>
        <pt x="653" y="216" on="1"/>
        <pt x="628" y="151" on="0"/>
        <pt x="546" y="48" on="0"/>
        <pt x="429" y="-10" on="0"/>
        <pt x="353" y="-10" on="1"/>
        <pt x="286" y="-10" on="0"/>
        <pt x="173" y="36" on="0"/>
        <pt x="88" y="123" on="0"/>
        <pt x="41" y="243" on="0"/>
        <pt x="41" y="317" on="1"/>
        <pt x="41" y="402" on="0"/>
        <pt x="97" y="548" on="0"/>
        <pt x="196" y="658" on="0"/>
        <pt x="329" y="720" on="0"/>
        <pt x="405" y="720" on="1"/>
        <pt x="455" y="720" on="0"/>
        <pt x="531" y="696" on="0"/>
        <pt x="585" y="650" on="0"/>
        <pt x="620" y="587" on="0"/>
        <pt x="629" y="548" on="1"/>
        <pt x="592" y="552" on="1"/>
        <pt x="636" y="710" on="1"/>
        <pt x="696" y="710" on="1"/>
        <pt x="658" y="496" on="1"/>
        <pt x="591" y="496" on="1"/>
        <pt x="580" y="544" on="0"/>
        <pt x="535" y="618" on="0"/>
        <pt x="460" y="660" on="0"/>
      </contour>
    </TTGlyph>
    <TTGlyph name="uni0044" xMin="-10" yMin="0" xMax="728" yMax="710">
      <contour>
        <pt x="107" y="663" on="1"/>
        <pt x="116" y="710" on="1"/>
        <pt x="358" y="710" on="1"/>
        <pt x="470" y="710" on="0"/>
        <pt x="636" y="639" on="0"/>
        <pt x="728" y="502" on="0"/>
        <pt x="728" y="403" on="1"/>
        <pt x="728" y="317" on="0"/>
        <pt x="671" y="170" on="0"/>
        <pt x="562" y="61" on="0"/>
        <pt x="406" y="0" on="0"/>
        <pt x="308" y="0" on="1"/>
        <pt x="-10" y="0" on="1"/>
        <pt x="-1" y="47" on="1"/>
        <pt x="11" y="47" on="1"/>
        <pt x="48" y="47" on="0"/>
        <pt x="98" y="61" on="0"/>
        <pt x="102" y="83" on="1"/>
        <pt x="198" y="627" on="1"/>
        <pt x="202" y="647" on="0"/>
        <pt x="156" y="663" on="0"/>
        <pt x="119" y="663" on="1"/>
      </contour>
      <contour>
        <pt x="356" y="651" on="1"/>
        <pt x="295" y="651" on="1"/>
        <pt x="189" y="59" on="1"/>
        <pt x="300" y="59" on="1"/>
        <pt x="381" y="59" on="0"/>
        <pt x="504" y="107" on="0"/>
        <pt x="587" y="197" on="0"/>
        <pt x="630" y="324" on="0"/>
        <pt x="630" y="403" on="1"/>
        <pt x="630" y="484" on="0"/>
        <pt x="570" y="595" on="0"/>
        <pt x="449" y="651" on="0"/>
      </contour>
    </TTGlyph>
    <TTGlyph name="uni0045" xMin="-10" yMin="0" xMax="613" yMax="710">
      <contour>
        <pt x="565" y="217" on="1"/>
        <pt x="526" y="0" on="1"/>
        <pt x="-10" y="0" on="1"/>
        <pt x="-1" y="47" on="1"/>
        <pt x="10" y="47" on="1"/>
        <pt x="45" y="47" on="0"/>
        <pt x="97" y="60" on="0"/>
        <pt x="101" y="85" on="1"/>
        <pt x="196" y="627" on="1"/>
        <pt x="200" y="649" on="0"/>
        <pt x="154" y="663" on="0"/>
        <pt x="117" y="663" on="1"/>
        <pt x="106" y="663" on="1"/>
        <pt x="115" y="710" on="1"/>
        <pt x="613" y="710" on="1"/>
        <pt x="584" y="518" on="1"/>
        <pt x="528" y="518" on="1"/>
        <pt x="531" y="608" on="1"/>
        <pt x="532" y="635" on="0"/>
        <pt x="478" y="651" on="0"/>
        <pt x="413" y="651" on="1"/>
        <pt x="294" y="651" on="1"/>
        <pt x="189" y="59" on="1"/>
        <pt x="342" y="59" on="1"/>
        <pt x="407" y="59" on="0"/>
        <pt x="466" y="75" on="0"/>
        <pt x="474" y="102" on="1"/>
        <pt x="508" y="217" on="1"/>
      </contour>
      <contour>
        <pt x="218" y="390" on="1"/>
        <pt x="260" y="392" on="0"/>
        <pt x="343" y="394" on="0"/>
        <pt x="426" y="397" on="0"/>
        <pt x="467" y="398" on="1"/>
        <pt x="455" y="328" on="1"/>
        <pt x="415" y="330" on="0"/>
        <pt x="332" y="333" on="0"/>
        <pt x="250" y="337" on="0"/>
        <pt x="208" y="338" on="1"/>
      </contour>
    </TTGlyph>
    <TTGlyph name="uni0045.alt" xMin="-10" yMin="0" xMax="613" yMax="710">
      <contour>
        <pt x="565" y="217" on="1"/>
        <pt x="526" y="0" on="1"/>
        <pt x="-10" y="0" on="1"/>
        <pt x="-1" y="47" on="1"/>
        <pt x="10" y="47" on="1"/>
        <pt x="45" y="47" on="0"/>
        <pt x="97" y="60" on="0"/>
        <pt x="101" y="85" on="1"/>
        <pt x="196" y="627" on="1"/>
        <pt x="200" y="649" on="0"/>
        <pt x="154" y="663" on="0"/>
        <pt x="117" y="663" on="1"/>
        <pt x="106" y="663" on="1"/>
        <pt x="115" y="710" on="1"/>
        <pt x="613" y="710" on="1"/>
        <pt x="584" y="518" on="1"/>
        <pt x="528" y="518" on="1"/>
        <pt x="531" y="608" on="1"/>
        <pt x="532" y="635" on="0"/>
        <pt x="478" y="651" on="0"/>
        <pt x="413" y="651" on="1"/>
        <pt x="294" y="651" on="1"/>
        <pt x="189" y="59" on="1"/>
        <pt x="342" y="59" on="1"/>
        <pt x="407" y="59" on="0"/>
        <pt x="466" y="75" on="0"/>
        <pt x="474" y="102" on="1"/>
        <pt x="508" y="217" on="1"/>
      </contour>
      <contour>
        <pt x="218" y="391" on="1"/>
        <pt x="392" y="391" on="1"/>
        <pt x="414" y="391" on="0"/>
        <pt x="441" y="431" on="0"/>
        <pt x="445" y="457" on="1"/>
        <pt x="446" y="463" on="1"/>
        <pt x="491" y="463" on="1"/>
        <pt x="456" y="264" on="1"/>
        <pt x="411" y="264" on="1"/>
        <pt x="412" y="270" on="1"/>
        <pt x="417" y="296" on="0"/>
        <pt x="409" y="335" on="0"/>
        <pt x="387" y="335" on="1"/>
        <pt x="208" y="335" on="1"/>
      </contour>
    </TTGlyph>
    <TTGlyph name="uni0046" xMin="-10" yMin="0" xMax="622" yMax="710">
      <contour>
        <pt x="-10" y="0" on="1"/>
        <pt x="-1" y="47" on="1"/>
        <pt x="10" y="47" on="1"/>
        <pt x="45" y="47" on="0"/>
        <pt x="97" y="61" on="0"/>
        <pt x="101" y="84" on="1"/>
        <pt x="197" y="627" on="1"/>
        <pt x="201" y="649" on="0"/>
        <pt x="155" y="663" on="0"/>
        <pt x="118" y="663" on="1"/>
        <pt x="107" y="663" on="1"/>
        <pt x="116" y="710" on="1"/>
        <pt x="622" y="710" on="1"/>
        <pt x="588" y="518" on="1"/>
        <pt x="531" y="518" on="1"/>
        <pt x="538" y="608" on="1"/>
        <pt x="540" y="635" on="0"/>
        <pt x="486" y="651" on="0"/>
        <pt x="421" y="651" on="1"/>
        <pt x="295" y="651" on="1"/>
        <pt x="194" y="83" on="1"/>
        <pt x="191" y="66" on="0"/>
        <pt x="218" y="50" on="0"/>
        <pt x="262" y="47" on="0"/>
        <pt x="283" y="47" on="1"/>
        <pt x="300" y="47" on="1"/>
        <pt x="291" y="0" on="1"/>
      </contour>
      <contour>
        <pt x="237" y="380" on="1"/>
        <pt x="278" y="382" on="0"/>
        <pt x="360" y="384" on="0"/>
        <pt x="442" y="387" on="0"/>
        <pt x="483" y="388" on="1"/>
        <pt x="471" y="318" on="1"/>
        <pt x="430" y="320" on="0"/>
        <pt x="348" y="323" on="0"/>
        <pt x="267" y="326" on="0"/>
        <pt x="227" y="327" on="1"/>
      </contour>
    </TTGlyph>
    <TTGlyph name="uni0046.alt" xMin="-10" yMin="0" xMax="622" yMax="710">
      <contour>
        <pt x="-10" y="0" on="1"/>
        <pt x="-1" y="47" on="1"/>
        <pt x="10" y="47" on="1"/>
        <pt x="45" y="47" on="0"/>
        <pt x="97" y="61" on="0"/>
        <pt x="101" y="84" on="1"/>
        <pt x="197" y="627" on="1"/>
        <pt x="201" y="649" on="0"/>
        <pt x="155" y="663" on="0"/>
        <pt x="118" y="663" on="1"/>
        <pt x="107" y="663" on="1"/>
        <pt x="116" y="710" on="1"/>
        <pt x="622" y="710" on="1"/>
        <pt x="588" y="518" on="1"/>
        <pt x="531" y="518" on="1"/>
        <pt x="538" y="608" on="1"/>
        <pt x="540" y="635" on="0"/>
        <pt x="486" y="651" on="0"/>
        <pt x="421" y="651" on="1"/>
        <pt x="295" y="651" on="1"/>
        <pt x="194" y="83" on="1"/>
        <pt x="191" y="66" on="0"/>
        <pt x="218" y="50" on="0"/>
        <pt x="262" y="47" on="0"/>
        <pt x="283" y="47" on="1"/>
        <pt x="300" y="47" on="1"/>
        <pt x="291" y="0" on="1"/>
      </contour>
      <contour>
        <pt x="237" y="381" on="1"/>
        <pt x="411" y="381" on="1"/>
        <pt x="433" y="381" on="0"/>
        <pt x="460" y="421" on="0"/>
        <pt x="464" y="447" on="1"/>
        <pt x="465" y="453" on="1"/>
        <pt x="510" y="453" on="1"/>
        <pt x="475" y="254" on="1"/>
        <pt x="430" y="254" on="1"/>
        <pt x="431" y="260" on="1"/>
        <pt x="436" y="286" on="0"/>
        <pt x="428" y="325" on="0"/>
        <pt x="406" y="325" on="1"/>
        <pt x="227" y="325" on="1"/>
      </contour>
    </TTGlyph>
    <TTGlyph name="uni0047" xMin="41" yMin="-10" xMax="757" yMax="720">
      <contour>
        <pt x="634" y="95" on="1"/>
        <pt x="611" y="72" on="0"/>
        <pt x="537" y="23" on="0"/>
        <pt x="434" y="-10" on="0"/>
        <pt x="367" y="-10" on="1"/>
        <pt x="274" y="-10" on="0"/>
        <pt x="127" y="73" on="0"/>
        <pt x="41" y="222" on="0"/>
        <pt x="41" y="320" on="1"/>
        <pt x="41" y="406" on="0"/>
        <pt x="97" y="551" on="0"/>
        <pt x="199" y="660" on="0"/>
        <pt x="336" y="720" on="0"/>
        <pt x="418" y="720" on="1"/>
        <pt x="483" y="720" on="0"/>
        <pt x="575" y="677" on="0"/>
        <pt x="632" y="600" on="0"/>
        <pt x="645" y="548" on="1"/>
        <pt x="608" y="552" on="1"/>
        <pt x="652" y="710" on="1"/>
        <pt x="712" y="710" on="1"/>
        <pt x="674" y="496" on="1"/>
        <pt x="607" y="496" on="1"/>
        <pt x="595" y="543" on="0"/>
        <pt x="547" y="617" on="0"/>
        <pt x="471" y="660" on="0"/>
        <pt x="415" y="660" on="1"/>
        <pt x="355" y="660" on="0"/>
        <pt x="254" y="611" on="0"/>
        <pt x="180" y="519" on="0"/>
        <pt x="139" y="392" on="0"/>
        <pt x="139" y="314" on="1"/>
        <pt x="139" y="237" on="0"/>
        <pt x="194" y="118" on="0"/>
        <pt x="298" y="50" on="0"/>
        <pt x="371" y="50" on="1"/>
        <pt x="422" y="50" on="0"/>
        <pt x="494" y="75" on="0"/>
        <pt x="538" y="105" on="0"/>
        <pt x="547" y="111" on="1"/>
        <pt x="575" y="267" on="1"/>
        <pt x="580" y="292" on="0"/>
        <pt x="535" y="306" on="0"/>
        <pt x="498" y="306" on="1"/>
        <pt x="487" y="306" on="1"/>
        <pt x="495" y="353" on="1"/>
        <pt x="757" y="353" on="1"/>
        <pt x="749" y="306" on="1"/>
        <pt x="744" y="306" on="1"/>
        <pt x="712" y="306" on="0"/>
        <pt x="669" y="292" on="0"/>
        <pt x="665" y="270" on="1"/>
      </contour>
    </TTGlyph>
    <TTGlyph name="uni0048" xMin="-10" yMin="0" xMax="857" yMax="710">
      <contour>
        <pt x="217" y="395" on="1"/>
        <pt x="644" y="395" on="1"/>
        <pt x="634" y="337" on="1"/>
        <pt x="207" y="337" on="1"/>
      </contour>
      <contour>
        <pt x="-10" y="0" on="1"/>
        <pt x="-1" y="47" on="1"/>
        <pt x="10" y="47" on="1"/>
        <pt x="47" y="47" on="0"/>
        <pt x="97" y="61" on="0"/>
        <pt x="101" y="83" on="1"/>
        <pt x="198" y="627" on="1"/>
        <pt x="202" y="649" on="0"/>
        <pt x="156" y="663" on="0"/>
        <pt x="119" y="663" on="1"/>
        <pt x="108" y="663" on="1"/>
        <pt x="117" y="710" on="1"/>
        <pt x="401" y="710" on="1"/>
        <pt x="392" y="663" on="1"/>
        <pt x="383" y="663" on="1"/>
        <pt x="364" y="663" on="0"/>
        <pt x="324" y="661" on="0"/>
        <pt x="296" y="657" on="0"/>
        <pt x="295" y="653" on="1"/>
        <pt x="189" y="57" on="1"/>
        <pt x="189" y="54" on="0"/>
        <pt x="216" y="49" on="0"/>
        <pt x="256" y="47" on="0"/>
        <pt x="275" y="47" on="1"/>
        <pt x="284" y="47" on="1"/>
        <pt x="275" y="0" on="1"/>
      </contour>
      <contour>
        <pt x="446" y="0" on="1"/>
        <pt x="455" y="47" on="1"/>
        <pt x="464" y="47" on="1"/>
        <pt x="483" y="47" on="0"/>
        <pt x="523" y="49" on="0"/>
        <pt x="552" y="54" on="0"/>
        <pt x="552" y="57" on="1"/>
        <pt x="658" y="653" on="1"/>
        <pt x="659" y="657" on="0"/>
        <pt x="631" y="661" on="0"/>
        <pt x="591" y="663" on="0"/>
        <pt x="572" y="663" on="1"/>
        <pt x="563" y="663" on="1"/>
        <pt x="572" y="710" on="1"/>
        <pt x="857" y="710" on="1"/>
        <pt x="848" y="663" on="1"/>
        <pt x="837" y="663" on="1"/>
        <pt x="800" y="663" on="0"/>
        <pt x="750" y="649" on="0"/>
        <pt x="746" y="627" on="1"/>
        <pt x="649" y="83" on="1"/>
        <pt x="645" y="61" on="0"/>
        <pt x="691" y="47" on="0"/>
        <pt x="728" y="47" on="1"/>
        <pt x="739" y="47" on="1"/>
        <pt x="730" y="0" on="1"/>
      </contour>
    </TTGlyph>
    <TTGlyph name="uni0049" xMin="-10" yMin="0" xMax="399" yMax="710">
      <contour>
        <pt x="100" y="78" on="1"/>
        <pt x="196" y="627" on="1"/>
        <pt x="200" y="649" on="0"/>
        <pt x="154" y="663" on="0"/>
        <pt x="117" y="663" on="1"/>
        <pt x="106" y="663" on="1"/>
        <pt x="115" y="710" on="1"/>
        <pt x="399" y="710" on="1"/>
        <pt x="390" y="663" on="1"/>
        <pt x="379" y="663" on="1"/>
        <pt x="345" y="663" on="0"/>
        <pt x="293" y="652" on="0"/>
        <pt x="289" y="632" on="1"/>
        <pt x="193" y="83" on="1"/>
        <pt x="189" y="61" on="0"/>
        <pt x="235" y="47" on="0"/>
        <pt x="272" y="47" on="1"/>
        <pt x="283" y="47" on="1"/>
        <pt x="274" y="0" on="1"/>
        <pt x="-10" y="0" on="1"/>
        <pt x="-1" y="47" on="1"/>
        <pt x="10" y="47" on="1"/>
        <pt x="45" y="47" on="0"/>
        <pt x="96" y="59" on="0"/>
      </contour>
    </TTGlyph>
    <TTGlyph name="uni004A" xMin="-15" yMin="-10" xMax="585" yMax="710">
      <contour>
        <pt x="383" y="627" on="1"/>
        <pt x="387" y="649" on="0"/>
        <pt x="341" y="663" on="0"/>
        <pt x="304" y="663" on="1"/>
        <pt x="283" y="663" on="1"/>
        <pt x="291" y="710" on="1"/>
        <pt x="585" y="710" on="1"/>
        <pt x="577" y="663" on="1"/>
        <pt x="566" y="663" on="1"/>
        <pt x="529" y="663" on="0"/>
        <pt x="479" y="649" on="0"/>
        <pt x="475" y="627" on="1"/>
        <pt x="404" y="226" on="1"/>
        <pt x="389" y="143" on="0"/>
        <pt x="330" y="38" on="0"/>
        <pt x="236" y="-10" on="0"/>
        <pt x="169" y="-10" on="1"/>
        <pt x="123" y="-10" on="0"/>
        <pt x="53" y="13" on="0"/>
        <pt x="2" y="50" on="0"/>
        <pt x="-15" y="72" on="1"/>
        <pt x="3" y="170" on="1"/>
        <pt x="96" y="170" on="1"/>
        <pt x="77" y="59" on="1"/>
        <pt x="54" y="68" on="0"/>
        <pt x="41" y="95" on="0"/>
        <pt x="50" y="115" on="0"/>
        <pt x="61" y="113" on="1"/>
        <pt x="72" y="84" on="0"/>
        <pt x="130" y="50" on="0"/>
        <pt x="171" y="50" on="1"/>
        <pt x="208" y="50" on="0"/>
        <pt x="263" y="86" on="0"/>
        <pt x="302" y="166" on="0"/>
        <pt x="313" y="232" on="1"/>
      </contour>
    </TTGlyph>
    <TTGlyph name="uni004B" xMin="-10" yMin="0" xMax="746" yMax="710">
      <contour>
        <pt x="-10" y="0" on="1"/>
        <pt x="-1" y="47" on="1"/>
        <pt x="10" y="47" on="1"/>
        <pt x="47" y="47" on="0"/>
        <pt x="97" y="61" on="0"/>
        <pt x="101" y="83" on="1"/>
        <pt x="197" y="627" on="1"/>
        <pt x="201" y="649" on="0"/>
        <pt x="155" y="663" on="0"/>
        <pt x="118" y="663" on="1"/>
        <pt x="107" y="663" on="1"/>
        <pt x="116" y="710" on="1"/>
        <pt x="400" y="710" on="1"/>
        <pt x="391" y="663" on="1"/>
        <pt x="382" y="663" on="1"/>
        <pt x="363" y="663" on="0"/>
        <pt x="323" y="661" on="0"/>
        <pt x="295" y="657" on="0"/>
        <pt x="294" y="653" on="1"/>
        <pt x="189" y="57" on="1"/>
        <pt x="189" y="54" on="0"/>
        <pt x="216" y="49" on="0"/>
        <pt x="256" y="47" on="0"/>
        <pt x="275" y="47" on="1"/>
        <pt x="284" y="47" on="1"/>
        <pt x="275" y="0" on="1"/>
      </contour>
      <contour>
        <pt x="390" y="0" on="1"/>
        <pt x="399" y="47" on="1"/>
        <pt x="408" y="47" on="1"/>
        <pt x="427" y="47" on="0"/>
        <pt x="465" y="49" on="0"/>
        <pt x="491" y="54" on="0"/>
        <pt x="491" y="57" on="1"/>
        <pt x="273" y="347" on="1"/>
        <pt x="276" y="364" on="1"/>
        <pt x="578" y="653" on="1"/>
        <pt x="577" y="658" on="0"/>
        <pt x="528" y="663" on="0"/>
        <pt x="500" y="663" on="1"/>
        <pt x="491" y="663" on="1"/>
        <pt x="500" y="710" on="1"/>
        <pt x="746" y="710" on="1"/>
        <pt x="737" y="663" on="1"/>
        <pt x="724" y="663" on="1"/>
        <pt x="706" y="663" on="0"/>
        <pt x="677" y="658" on="0"/>
        <pt x="653" y="646" on="0"/>
        <pt x="640" y="634" on="1"/>
        <pt x="347" y="356" on="1"/>
        <pt x="341" y="401" on="1"/>
        <pt x="587" y="80" on="1"/>
        <pt x="604" y="59" on="0"/>
        <pt x="636" y="47" on="0"/>
        <pt x="670" y="47" on="1"/>
        <pt x="683" y="47" on="1"/>
        <pt x="674" y="0" on="1"/>
      </contour>
    </TTGlyph>
    <TTGlyph name="uni004C" xMin="-10" yMin="0" xMax="560" yMax="710">
      <contour>
        <pt x="404" y="710" on="1"/>
        <pt x="116" y="710" on="1"/>
        <pt x="107" y="663" on="1"/>
        <pt x="118" y="663" on="1"/>
        <pt x="155" y="663" on="0"/>
        <pt x="201" y="649" on="0"/>
        <pt x="197" y="627" on="1"/>
        <pt x="100" y="78" on="1"/>
        <pt x="96" y="59" on="0"/>
        <pt x="45" y="47" on="0"/>
        <pt x="10" y="47" on="1"/>
        <pt x="-1" y="47" on="1"/>
        <pt x="-10" y="0" on="1"/>
        <pt x="521" y="0" on="1"/>
        <pt x="560" y="224" on="1"/>
        <pt x="500" y="224" on="1"/>
        <pt x="467" y="102" on="1"/>
        <pt x="462" y="84" on="0"/>
        <pt x="433" y="66" on="0"/>
        <pt x="378" y="59" on="0"/>
        <pt x="335" y="59" on="1"/>
        <pt x="189" y="59" on="1"/>
        <pt x="290" y="632" on="1"/>
        <pt x="294" y="652" on="0"/>
        <pt x="347" y="663" on="0"/>
        <pt x="384" y="663" on="1"/>
        <pt x="395" y="663" on="1"/>
      </contour>
    </TTGlyph>
    <TTGlyph name="uni004D" xMin="-10" yMin="-2" xMax="970" yMax="710">
      <contour>
        <pt x="-10" y="0" on="1"/>
        <pt x="-2" y="47" on="1"/>
        <pt x="9" y="47" on="1"/>
        <pt x="46" y="47" on="0"/>
        <pt x="97" y="61" on="0"/>
        <pt x="101" y="83" on="1"/>
        <pt x="196" y="627" on="1"/>
        <pt x="200" y="649" on="0"/>
        <pt x="154" y="663" on="0"/>
        <pt x="117" y="663" on="1"/>
        <pt x="106" y="663" on="1"/>
        <pt x="115" y="710" on="1"/>
        <pt x="349" y="710" on="1"/>
        <pt x="440" y="89" on="1"/>
        <pt x="422" y="92" on="1"/>
        <pt x="737" y="710" on="1"/>
        <pt x="970" y="710" on="1"/>
        <pt x="961" y="663" on="1"/>
        <pt x="950" y="663" on="1"/>
        <pt x="913" y="663" on="0"/>
        <pt x="863" y="649" on="0"/>
        <pt x="859" y="627" on="1"/>
        <pt x="763" y="79" on="1"/>
        <pt x="760" y="60" on="0"/>
        <pt x="808" y="47" on="0"/>
        <pt x="842" y="47" on="1"/>
        <pt x="853" y="47" on="1"/>
        <pt x="845" y="0" on="1"/>
        <pt x="564" y="0" on="1"/>
        <pt x="572" y="47" on="1"/>
        <pt x="581" y="47" on="1"/>
        <pt x="600" y="47" on="0"/>
        <pt x="641" y="49" on="0"/>
        <pt x="670" y="54" on="0"/>
        <pt x="670" y="57" on="1"/>
        <pt x="781" y="689" on="1"/>
        <pt x="790" y="686" on="1"/>
        <pt x="431" y="-2" on="1"/>
        <pt x="374" y="-2" on="1"/>
        <pt x="261" y="688" on="1"/>
        <pt x="270" y="688" on="1"/>
        <pt x="160" y="57" on="1"/>
        <pt x="160" y="54" on="0"/>
        <pt x="186" y="49" on="0"/>
        <pt x="224" y="47" on="0"/>
        <pt x="240" y="47" on="1"/>
        <pt x="244" y="47" on="1"/>
        <pt x="236" y="0" on="1"/>
      </contour>
    </TTGlyph>
    <TTGlyph name="uni004E" xMin="-10" yMin="0" xMax="833" yMax="710">
      <contour>
        <pt x="-10" y="0" on="1"/>
        <pt x="-1" y="47" on="1"/>
        <pt x="10" y="47" on="1"/>
        <pt x="45" y="47" on="0"/>
        <pt x="97" y="60" on="0"/>
        <pt x="101" y="81" on="1"/>
        <pt x="196" y="627" on="1"/>
        <pt x="200" y="649" on="0"/>
        <pt x="154" y="663" on="0"/>
        <pt x="117" y="663" on="1"/>
        <pt x="106" y="663" on="1"/>
        <pt x="115" y="710" on="1"/>
        <pt x="335" y="710" on="1"/>
        <pt x="575" y="77" on="1"/>
        <pt x="561" y="76" on="1"/>
        <pt x="662" y="653" on="1"/>
        <pt x="663" y="657" on="0"/>
        <pt x="634" y="661" on="0"/>
        <pt x="592" y="663" on="0"/>
        <pt x="571" y="663" on="1"/>
        <pt x="557" y="663" on="1"/>
        <pt x="566" y="710" on="1"/>
        <pt x="833" y="710" on="1"/>
        <pt x="824" y="663" on="1"/>
        <pt x="812" y="663" on="1"/>
        <pt x="778" y="663" on="0"/>
        <pt x="726" y="652" on="0"/>
        <pt x="722" y="632" on="1"/>
        <pt x="611" y="0" on="1"/>
        <pt x="516" y="0" on="1"/>
        <pt x="254" y="682" on="1"/>
        <pt x="270" y="684" on="1"/>
        <pt x="161" y="57" on="1"/>
        <pt x="161" y="54" on="0"/>
        <pt x="188" y="49" on="0"/>
        <pt x="231" y="47" on="0"/>
        <pt x="252" y="47" on="1"/>
        <pt x="266" y="47" on="1"/>
        <pt x="257" y="0" on="1"/>
      </contour>
    </TTGlyph>
    <TTGlyph name="uni004F" xMin="44" yMin="-10" xMax="740" yMax="720">
      <contour>
        <pt x="360" y="-10" on="1"/>
        <pt x="288" y="-10" on="0"/>
        <pt x="172" y="40" on="0"/>
        <pt x="89" y="129" on="0"/>
        <pt x="44" y="248" on="0"/>
        <pt x="44" y="316" on="1"/>
        <pt x="44" y="400" on="0"/>
        <pt x="99" y="547" on="0"/>
        <pt x="200" y="657" on="0"/>
        <pt x="339" y="720" on="0"/>
        <pt x="424" y="720" on="1"/>
        <pt x="496" y="720" on="0"/>
        <pt x="612" y="670" on="0"/>
        <pt x="695" y="581" on="0"/>
        <pt x="740" y="462" on="0"/>
        <pt x="740" y="394" on="1"/>
        <pt x="740" y="310" on="0"/>
        <pt x="685" y="163" on="0"/>
        <pt x="584" y="53" on="0"/>
        <pt x="445" y="-10" on="0"/>
      </contour>
      <contour>
        <pt x="362" y="50" on="1"/>
        <pt x="429" y="50" on="0"/>
        <pt x="532" y="104" on="0"/>
        <pt x="604" y="199" on="0"/>
        <pt x="622" y="258" on="1"/>
        <pt x="632" y="290" on="0"/>
        <pt x="642" y="358" on="0"/>
        <pt x="642" y="394" on="1"/>
        <pt x="642" y="451" on="0"/>
        <pt x="615" y="547" on="0"/>
        <pt x="560" y="620" on="0"/>
        <pt x="477" y="660" on="0"/>
        <pt x="422" y="660" on="1"/>
        <pt x="355" y="660" on="0"/>
        <pt x="252" y="606" on="0"/>
        <pt x="181" y="512" on="0"/>
        <pt x="162" y="452" on="1"/>
        <pt x="152" y="421" on="0"/>
        <pt x="142" y="352" on="0"/>
        <pt x="142" y="316" on="1"/>
        <pt x="142" y="259" on="0"/>
        <pt x="169" y="163" on="0"/>
        <pt x="224" y="90" on="0"/>
        <pt x="307" y="50" on="0"/>
      </contour>
    </TTGlyph>
    <TTGlyph name="uni0050" xMin="-9" yMin="0" xMax="628" yMax="710">
      <contour>
        <pt x="239" y="342" on="1"/>
        <pt x="335" y="342" on="1"/>
        <pt x="406" y="342" on="0"/>
        <pt x="492" y="388" on="0"/>
        <pt x="531" y="472" on="0"/>
        <pt x="531" y="527" on="1"/>
        <pt x="531" y="583" on="0"/>
        <pt x="459" y="651" on="0"/>
        <pt x="381" y="651" on="1"/>
        <pt x="295" y="651" on="1"/>
      </contour>
      <contour>
        <pt x="117" y="710" on="1"/>
        <pt x="380" y="710" on="1"/>
        <pt x="461" y="710" on="0"/>
        <pt x="571" y="663" on="0"/>
        <pt x="628" y="579" on="0"/>
        <pt x="628" y="522" on="1"/>
        <pt x="628" y="456" on="0"/>
        <pt x="560" y="349" on="0"/>
        <pt x="426" y="285" on="0"/>
        <pt x="327" y="285" on="1"/>
        <pt x="229" y="285" on="1"/>
        <pt x="189" y="57" on="1"/>
        <pt x="189" y="54" on="0"/>
        <pt x="212" y="49" on="0"/>
        <pt x="247" y="47" on="0"/>
        <pt x="264" y="47" on="1"/>
        <pt x="295" y="47" on="1"/>
        <pt x="287" y="0" on="1"/>
        <pt x="-9" y="0" on="1"/>
        <pt x="0" y="47" on="1"/>
        <pt x="10" y="47" on="1"/>
        <pt x="47" y="47" on="0"/>
        <pt x="97" y="62" on="0"/>
        <pt x="100" y="79" on="1"/>
        <pt x="198" y="627" on="1"/>
        <pt x="202" y="648" on="0"/>
        <pt x="160" y="663" on="0"/>
        <pt x="119" y="663" on="1"/>
        <pt x="108" y="663" on="1"/>
      </contour>
    </TTGlyph>
    <TTGlyph name="uni0051" xMin="44" yMin="-184" xMax="740" yMax="720">
      <contour>
        <pt x="360" y="-10" on="1"/>
        <pt x="288" y="-10" on="0"/>
        <pt x="172" y="40" on="0"/>
        <pt x="89" y="129" on="0"/>
        <pt x="44" y="248" on="0"/>
        <pt x="44" y="316" on="1"/>
        <pt x="44" y="400" on="0"/>
        <pt x="99" y="547" on="0"/>
        <pt x="200" y="657" on="0"/>
        <pt x="339" y="720" on="0"/>
        <pt x="424" y="720" on="1"/>
        <pt x="496" y="720" on="0"/>
        <pt x="612" y="670" on="0"/>
        <pt x="695" y="581" on="0"/>
        <pt x="740" y="462" on="0"/>
        <pt x="740" y="394" on="1"/>
        <pt x="740" y="310" on="0"/>
        <pt x="685" y="163" on="0"/>
        <pt x="584" y="53" on="0"/>
        <pt x="445" y="-10" on="0"/>
      </contour>
      <contour>
        <pt x="362" y="50" on="1"/>
        <pt x="429" y="50" on="0"/>
        <pt x="532" y="104" on="0"/>
        <pt x="604" y="199" on="0"/>
        <pt x="622" y="258" on="1"/>
        <pt x="632" y="290" on="0"/>
        <pt x="642" y="358" on="0"/>
        <pt x="642" y="394" on="1"/>
        <pt x="642" y="451" on="0"/>
        <pt x="615" y="547" on="0"/>
        <pt x="560" y="620" on="0"/>
        <pt x="477" y="660" on="0"/>
        <pt x="422" y="660" on="1"/>
        <pt x="355" y="660" on="0"/>
        <pt x="252" y="606" on="0"/>
        <pt x="181" y="512" on="0"/>
        <pt x="162" y="452" on="1"/>
        <pt x="152" y="421" on="0"/>
        <pt x="142" y="352" on="0"/>
        <pt x="142" y="316" on="1"/>
        <pt x="142" y="259" on="0"/>
        <pt x="169" y="163" on="0"/>
        <pt x="224" y="90" on="0"/>
        <pt x="307" y="50" on="0"/>
      </contour>
      <contour>
        <pt x="522" y="-184" on="1"/>
        <pt x="457" y="-184" on="0"/>
        <pt x="365" y="-152" on="0"/>
        <pt x="318" y="-91" on="0"/>
        <pt x="318" y="-48" on="1"/>
        <pt x="318" y="-35" on="0"/>
        <pt x="322" y="-8" on="0"/>
        <pt x="326" y="7" on="1"/>
        <pt x="389" y="18" on="1"/>
        <pt x="385" y="7" on="0"/>
        <pt x="382" y="-13" on="0"/>
        <pt x="382" y="-22" on="1"/>
        <pt x="382" y="-52" on="0"/>
        <pt x="418" y="-89" on="0"/>
        <pt x="484" y="-106" on="0"/>
        <pt x="530" y="-106" on="1"/>
        <pt x="558" y="-106" on="0"/>
        <pt x="605" y="-99" on="0"/>
        <pt x="653" y="-85" on="0"/>
        <pt x="681" y="-77" on="1"/>
        <pt x="665" y="-166" on="1"/>
        <pt x="631" y="-176" on="0"/>
        <pt x="559" y="-184" on="0"/>
      </contour>
    </TTGlyph>
    <TTGlyph name="uni0052" xMin="-10" yMin="0" xMax="632" yMax="710">
      <contour>
        <pt x="-10" y="0" on="1"/>
        <pt x="-1" y="47" on="1"/>
        <pt x="10" y="47" on="1"/>
        <pt x="45" y="47" on="0"/>
        <pt x="96" y="59" on="0"/>
        <pt x="100" y="79" on="1"/>
        <pt x="197" y="627" on="1"/>
        <pt x="201" y="647" on="0"/>
        <pt x="159" y="663" on="0"/>
        <pt x="118" y="663" on="1"/>
        <pt x="107" y="663" on="1"/>
        <pt x="116" y="710" on="1"/>
        <pt x="377" y="710" on="1"/>
        <pt x="499" y="710" on="0"/>
        <pt x="622" y="605" on="0"/>
        <pt x="622" y="526" on="1"/>
        <pt x="622" y="475" on="0"/>
        <pt x="584" y="392" on="0"/>
        <pt x="509" y="333" on="0"/>
        <pt x="401" y="301" on="0"/>
        <pt x="331" y="301" on="1"/>
        <pt x="232" y="301" on="1"/>
        <pt x="189" y="57" on="1"/>
        <pt x="189" y="54" on="0"/>
        <pt x="213" y="49" on="0"/>
        <pt x="249" y="47" on="0"/>
        <pt x="265" y="47" on="1"/>
        <pt x="276" y="47" on="1"/>
        <pt x="267" y="0" on="1"/>
      </contour>
      <contour>
        <pt x="380" y="651" on="1"/>
        <pt x="294" y="651" on="1"/>
        <pt x="242" y="357" on="1"/>
        <pt x="337" y="357" on="1"/>
        <pt x="403" y="357" on="0"/>
        <pt x="486" y="398" on="0"/>
        <pt x="525" y="476" on="0"/>
        <pt x="525" y="530" on="1"/>
        <pt x="525" y="584" on="0"/>
        <pt x="456" y="651" on="0"/>
      </contour>
      <contour>
        <pt x="357" y="321" on="1"/>
        <pt x="444" y="336" on="1"/>
        <pt x="556" y="82" on="1"/>
        <pt x="567" y="58" on="0"/>
        <pt x="595" y="47" on="0"/>
        <pt x="623" y="47" on="1"/>
        <pt x="632" y="47" on="1"/>
        <pt x="623" y="0" on="1"/>
        <pt x="487" y="0" on="1"/>
      </contour>
    </TTGlyph>
    <TTGlyph name="uni0053" xMin="-18" yMin="-10" xMax="582" yMax="720">
      <contour>
        <pt x="306" y="-10" on="1"/>
        <pt x="242" y="-10" on="0"/>
        <pt x="134" y="35" on="0"/>
        <pt x="58" y="125" on="0"/>
        <pt x="42" y="194" on="1"/>
        <pt x="87" y="173" on="1"/>
        <pt x="43" y="0" on="1"/>
        <pt x="-18" y="0" on="1"/>
        <pt x="25" y="225" on="1"/>
        <pt x="90" y="225" on="1"/>
        <pt x="101" y="171" on="0"/>
        <pt x="159" y="93" on="0"/>
        <pt x="250" y="50" on="0"/>
        <pt x="308" y="50" on="1"/>
        <pt x="354" y="50" on="0"/>
        <pt x="422" y="81" on="0"/>
        <pt x="459" y="139" on="0"/>
        <pt x="459" y="181" on="1"/>
        <pt x="459" y="226" on="0"/>
        <pt x="408" y="281" on="0"/>
        <pt x="327" y="318" on="0"/>
        <pt x="283" y="336" on="1"/>
        <pt x="237" y="355" on="0"/>
        <pt x="155" y="404" on="0"/>
        <pt x="104" y="477" on="0"/>
        <pt x="104" y="531" on="1"/>
        <pt x="104" y="589" on="0"/>
        <pt x="159" y="674" on="0"/>
        <pt x="259" y="720" on="0"/>
        <pt x="324" y="720" on="1"/>
        <pt x="379" y="720" on="0"/>
        <pt x="466" y="679" on="0"/>
        <pt x="521" y="604" on="0"/>
        <pt x="529" y="552" on="1"/>
        <pt x="487" y="567" on="1"/>
        <pt x="525" y="707" on="1"/>
        <pt x="582" y="707" on="1"/>
        <pt x="549" y="521" on="1"/>
        <pt x="486" y="521" on="1"/>
        <pt x="481" y="559" on="0"/>
        <pt x="438" y="622" on="0"/>
        <pt x="368" y="660" on="0"/>
        <pt x="322" y="660" on="1"/>
        <pt x="256" y="660" on="0"/>
        <pt x="188" y="595" on="0"/>
        <pt x="188" y="545" on="1"/>
        <pt x="188" y="504" on="0"/>
        <pt x="233" y="455" on="0"/>
        <pt x="307" y="421" on="0"/>
        <pt x="351" y="403" on="1"/>
        <pt x="399" y="383" on="0"/>
        <pt x="489" y="333" on="0"/>
        <pt x="548" y="255" on="0"/>
        <pt x="548" y="195" on="1"/>
        <pt x="548" y="128" on="0"/>
        <pt x="481" y="37" on="0"/>
        <pt x="371" y="-10" on="0"/>
      </contour>
    </TTGlyph>
    <TTGlyph name="uni0054" xMin="78" yMin="0" xMax="701" yMax="710">
      <contour>
        <pt x="249" y="82" on="1"/>
        <pt x="351" y="651" on="1"/>
        <pt x="291" y="651" on="1"/>
        <pt x="227" y="651" on="0"/>
        <pt x="171" y="635" on="0"/>
        <pt x="163" y="608" on="1"/>
        <pt x="135" y="513" on="1"/>
        <pt x="78" y="513" on="1"/>
        <pt x="113" y="710" on="1"/>
        <pt x="701" y="710" on="1"/>
        <pt x="666" y="513" on="1"/>
        <pt x="611" y="513" on="1"/>
        <pt x="620" y="608" on="1"/>
        <pt x="622" y="635" on="0"/>
        <pt x="568" y="651" on="0"/>
        <pt x="503" y="651" on="1"/>
        <pt x="443" y="651" on="1"/>
        <pt x="342" y="84" on="1"/>
        <pt x="338" y="62" on="0"/>
        <pt x="384" y="47" on="0"/>
        <pt x="421" y="47" on="1"/>
        <pt x="437" y="47" on="1"/>
        <pt x="428" y="0" on="1"/>
        <pt x="133" y="0" on="1"/>
        <pt x="142" y="47" on="1"/>
        <pt x="158" y="47" on="1"/>
        <pt x="195" y="47" on="0"/>
        <pt x="245" y="62" on="0"/>
      </contour>
    </TTGlyph>
    <TTGlyph name="uni0055" xMin="88" yMin="-10" xMax="818" yMax="710">
      <contour>
        <pt x="218" y="321" on="1"/>
        <pt x="215" y="300" on="0"/>
        <pt x="209" y="258" on="0"/>
        <pt x="205" y="221" on="0"/>
        <pt x="205" y="205" on="1"/>
        <pt x="205" y="155" on="0"/>
        <pt x="248" y="90" on="0"/>
        <pt x="323" y="59" on="0"/>
        <pt x="372" y="59" on="1"/>
        <pt x="458" y="59" on="0"/>
        <pt x="560" y="167" on="0"/>
        <pt x="582" y="293" on="1"/>
        <pt x="644" y="642" on="1"/>
        <pt x="646" y="649" on="0"/>
        <pt x="619" y="658" on="0"/>
        <pt x="579" y="663" on="0"/>
        <pt x="561" y="663" on="1"/>
        <pt x="552" y="663" on="1"/>
        <pt x="560" y="710" on="1"/>
        <pt x="818" y="710" on="1"/>
        <pt x="810" y="663" on="1"/>
        <pt x="799" y="663" on="1"/>
        <pt x="762" y="663" on="0"/>
        <pt x="711" y="643" on="0"/>
        <pt x="706" y="617" on="1"/>
        <pt x="647" y="288" on="1"/>
        <pt x="628" y="181" on="0"/>
        <pt x="545" y="50" on="0"/>
        <pt x="425" y="-10" on="0"/>
        <pt x="352" y="-10" on="1"/>
        <pt x="285" y="-10" on="0"/>
        <pt x="176" y="38" on="0"/>
        <pt x="113" y="133" on="0"/>
        <pt x="113" y="205" on="1"/>
        <pt x="113" y="226" on="0"/>
        <pt x="116" y="267" on="0"/>
        <pt x="122" y="310" on="0"/>
        <pt x="126" y="332" on="1"/>
        <pt x="178" y="632" on="1"/>
        <pt x="181" y="651" on="0"/>
        <pt x="134" y="663" on="0"/>
        <pt x="99" y="663" on="1"/>
        <pt x="88" y="663" on="1"/>
        <pt x="96" y="710" on="1"/>
        <pt x="382" y="710" on="1"/>
        <pt x="374" y="663" on="1"/>
        <pt x="365" y="663" on="1"/>
        <pt x="346" y="663" on="0"/>
        <pt x="305" y="661" on="0"/>
        <pt x="277" y="657" on="0"/>
        <pt x="276" y="653" on="1"/>
      </contour>
    </TTGlyph>
    <TTGlyph name="uni0056" xMin="60" yMin="0" xMax="725" yMax="710">
      <contour>
        <pt x="291" y="37" on="1"/>
        <pt x="269" y="45" on="1"/>
        <pt x="577" y="646" on="1"/>
        <pt x="580" y="651" on="0"/>
        <pt x="554" y="658" on="0"/>
        <pt x="514" y="663" on="0"/>
        <pt x="495" y="663" on="1"/>
        <pt x="480" y="663" on="1"/>
        <pt x="489" y="710" on="1"/>
        <pt x="725" y="710" on="1"/>
        <pt x="716" y="663" on="1"/>
        <pt x="711" y="663" on="1"/>
        <pt x="683" y="663" on="0"/>
        <pt x="648" y="650" on="0"/>
        <pt x="634" y="622" on="1"/>
        <pt x="312" y="0" on="1"/>
        <pt x="211" y="0" on="1"/>
        <pt x="127" y="629" on="1"/>
        <pt x="124" y="653" on="0"/>
        <pt x="91" y="663" on="0"/>
        <pt x="65" y="663" on="1"/>
        <pt x="60" y="663" on="1"/>
        <pt x="69" y="710" on="1"/>
        <pt x="327" y="710" on="1"/>
        <pt x="318" y="663" on="1"/>
        <pt x="301" y="663" on="1"/>
        <pt x="282" y="663" on="0"/>
        <pt x="241" y="661" on="0"/>
        <pt x="214" y="657" on="0"/>
        <pt x="214" y="653" on="1"/>
      </contour>
    </TTGlyph>
    <TTGlyph name="uni0057" xMin="60" yMin="0" xMax="1087" yMax="710">
      <contour>
        <pt x="69" y="710" on="1"/>
        <pt x="324" y="710" on="1"/>
        <pt x="315" y="663" on="1"/>
        <pt x="298" y="663" on="1"/>
        <pt x="279" y="663" on="0"/>
        <pt x="239" y="661" on="0"/>
        <pt x="212" y="657" on="0"/>
        <pt x="211" y="653" on="1"/>
        <pt x="261" y="47" on="1"/>
        <pt x="242" y="47" on="1"/>
        <pt x="538" y="710" on="1"/>
        <pt x="633" y="710" on="1"/>
        <pt x="689" y="50" on="1"/>
        <pt x="669" y="50" on="1"/>
        <pt x="940" y="645" on="1"/>
        <pt x="941" y="651" on="0"/>
        <pt x="916" y="659" on="0"/>
        <pt x="878" y="663" on="0"/>
        <pt x="859" y="663" on="1"/>
        <pt x="844" y="663" on="1"/>
        <pt x="853" y="710" on="1"/>
        <pt x="1087" y="710" on="1"/>
        <pt x="1078" y="663" on="1"/>
        <pt x="1073" y="663" on="1"/>
        <pt x="1047" y="663" on="0"/>
        <pt x="1009" y="646" on="0"/>
        <pt x="997" y="620" on="1"/>
        <pt x="711" y="0" on="1"/>
        <pt x="612" y="0" on="1"/>
        <pt x="557" y="649" on="1"/>
        <pt x="573" y="645" on="1"/>
        <pt x="281" y="0" on="1"/>
        <pt x="184" y="0" on="1"/>
        <pt x="128" y="626" on="1"/>
        <pt x="126" y="652" on="0"/>
        <pt x="93" y="663" on="0"/>
        <pt x="65" y="663" on="1"/>
        <pt x="60" y="663" on="1"/>
      </contour>
    </TTGlyph>
    <TTGlyph name="uni0058" xMin="-40" yMin="0" xMax="729" yMax="710">
      <contour>
        <pt x="84" y="663" on="1"/>
        <pt x="93" y="710" on="1"/>
        <pt x="357" y="710" on="1"/>
        <pt x="348" y="663" on="1"/>
        <pt x="331" y="663" on="1"/>
        <pt x="313" y="663" on="0"/>
        <pt x="275" y="661" on="0"/>
        <pt x="249" y="657" on="0"/>
        <pt x="248" y="653" on="1"/>
        <pt x="391" y="391" on="1"/>
        <pt x="395" y="388" on="1"/>
        <pt x="570" y="81" on="1"/>
        <pt x="583" y="59" on="0"/>
        <pt x="616" y="47" on="0"/>
        <pt x="644" y="47" on="1"/>
        <pt x="654" y="47" on="1"/>
        <pt x="645" y="0" on="1"/>
        <pt x="376" y="0" on="1"/>
        <pt x="385" y="47" on="1"/>
        <pt x="402" y="47" on="1"/>
        <pt x="420" y="47" on="0"/>
        <pt x="458" y="49" on="0"/>
        <pt x="485" y="54" on="0"/>
        <pt x="485" y="57" on="1"/>
        <pt x="326" y="338" on="1"/>
        <pt x="321" y="342" on="1"/>
        <pt x="163" y="631" on="1"/>
        <pt x="151" y="654" on="0"/>
        <pt x="117" y="663" on="0"/>
        <pt x="89" y="663" on="1"/>
      </contour>
      <contour>
        <pt x="-40" y="0" on="1"/>
        <pt x="-31" y="47" on="1"/>
        <pt x="-21" y="47" on="1"/>
        <pt x="6" y="47" on="0"/>
        <pt x="48" y="65" on="0"/>
        <pt x="73" y="93" on="1"/>
        <pt x="329" y="384" on="1"/>
        <pt x="361" y="339" on="1"/>
        <pt x="122" y="65" on="1"/>
        <pt x="121" y="60" on="0"/>
        <pt x="147" y="51" on="0"/>
        <pt x="186" y="47" on="0"/>
        <pt x="204" y="47" on="1"/>
        <pt x="219" y="47" on="1"/>
        <pt x="210" y="0" on="1"/>
      </contour>
      <contour>
        <pt x="392" y="356" on="1"/>
        <pt x="358" y="398" on="1"/>
        <pt x="569" y="645" on="1"/>
        <pt x="571" y="653" on="0"/>
        <pt x="518" y="663" on="0"/>
        <pt x="489" y="663" on="1"/>
        <pt x="474" y="663" on="1"/>
        <pt x="483" y="710" on="1"/>
        <pt x="729" y="710" on="1"/>
        <pt x="720" y="663" on="1"/>
        <pt x="715" y="663" on="1"/>
        <pt x="687" y="663" on="0"/>
        <pt x="642" y="646" on="0"/>
        <pt x="618" y="618" on="1"/>
      </contour>
    </TTGlyph>
    <TTGlyph name="uni0059" xMin="67" yMin="0" xMax="729" yMax="710">
      <contour>
        <pt x="289" y="315" on="1"/>
        <pt x="295" y="270" on="1"/>
        <pt x="145" y="637" on="1"/>
        <pt x="137" y="657" on="0"/>
        <pt x="99" y="663" on="0"/>
        <pt x="73" y="663" on="1"/>
        <pt x="67" y="663" on="1"/>
        <pt x="76" y="710" on="1"/>
        <pt x="340" y="710" on="1"/>
        <pt x="331" y="663" on="1"/>
        <pt x="316" y="663" on="1"/>
        <pt x="298" y="663" on="0"/>
        <pt x="259" y="661" on="0"/>
        <pt x="233" y="657" on="0"/>
        <pt x="232" y="653" on="1"/>
        <pt x="365" y="320" on="1"/>
        <pt x="336" y="323" on="1"/>
        <pt x="570" y="645" on="1"/>
        <pt x="572" y="653" on="0"/>
        <pt x="519" y="663" on="0"/>
        <pt x="490" y="663" on="1"/>
        <pt x="473" y="663" on="1"/>
        <pt x="482" y="710" on="1"/>
        <pt x="729" y="710" on="1"/>
        <pt x="720" y="663" on="1"/>
        <pt x="715" y="663" on="1"/>
        <pt x="690" y="663" on="0"/>
        <pt x="645" y="650" on="0"/>
        <pt x="625" y="622" on="1"/>
        <pt x="363" y="268" on="1"/>
        <pt x="381" y="315" on="1"/>
        <pt x="340" y="83" on="1"/>
        <pt x="336" y="61" on="0"/>
        <pt x="382" y="47" on="0"/>
        <pt x="419" y="47" on="1"/>
        <pt x="435" y="47" on="1"/>
        <pt x="426" y="0" on="1"/>
        <pt x="132" y="0" on="1"/>
        <pt x="141" y="47" on="1"/>
        <pt x="157" y="47" on="1"/>
        <pt x="194" y="47" on="0"/>
        <pt x="244" y="61" on="0"/>
        <pt x="248" y="83" on="1"/>
      </contour>
    </TTGlyph>
    <TTGlyph name="uni005A" xMin="-22" yMin="0" xMax="609" yMax="710">
      <contour>
        <pt x="40" y="59" on="1"/>
        <pt x="320" y="59" on="1"/>
        <pt x="363" y="59" on="0"/>
        <pt x="418" y="66" on="0"/>
        <pt x="448" y="84" on="0"/>
        <pt x="453" y="102" on="1"/>
        <pt x="484" y="212" on="1"/>
        <pt x="542" y="212" on="1"/>
        <pt x="506" y="0" on="1"/>
        <pt x="-22" y="0" on="1"/>
        <pt x="-10" y="67" on="1"/>
        <pt x="525" y="679" on="1"/>
        <pt x="540" y="651" on="1"/>
        <pt x="298" y="651" on="1"/>
        <pt x="255" y="651" on="0"/>
        <pt x="200" y="645" on="0"/>
        <pt x="171" y="626" on="0"/>
        <pt x="165" y="608" on="1"/>
        <pt x="137" y="513" on="1"/>
        <pt x="81" y="513" on="1"/>
        <pt x="116" y="710" on="1"/>
        <pt x="609" y="710" on="1"/>
        <pt x="597" y="646" on="1"/>
        <pt x="48" y="19" on="1"/>
      </contour>
    </TTGlyph>
    <TTGlyph name="uni005B" xMin="7" yMin="-130" xMax="397" yMax="750">
      <contour>
        <pt x="194" y="700" on="1"/>
        <pt x="203" y="750" on="1"/>
        <pt x="397" y="750" on="1"/>
        <pt x="388" y="700" on="1"/>
      </contour>
      <contour>
        <pt x="87" y="-130" on="1"/>
        <pt x="7" y="-130" on="1"/>
        <pt x="163" y="750" on="1"/>
        <pt x="243" y="750" on="1"/>
      </contour>
      <contour>
        <pt x="47" y="-130" on="1"/>
        <pt x="56" y="-80" on="1"/>
        <pt x="260" y="-80" on="1"/>
        <pt x="251" y="-130" on="1"/>
      </contour>
    </TTGlyph>
    <TTGlyph name="uni005D" xMin="-38" yMin="-130" xMax="352" yMax="750">
      <component glyphName="uni005B" x="359" y="620" scale="-1.0" flags="0x4"/>
    </TTGlyph>
    <TTGlyph name="uni0061" xMin="44" yMin="-12" xMax="568" yMax="518">
      <contour>
        <pt x="467" y="-7" on="1"/>
        <pt x="431" y="-7" on="0"/>
        <pt x="383" y="37" on="0"/>
        <pt x="383" y="77" on="1"/>
        <pt x="383" y="91" on="0"/>
        <pt x="387" y="124" on="0"/>
        <pt x="392" y="152" on="1"/>
        <pt x="378" y="124" on="1"/>
        <pt x="430" y="425" on="1"/>
        <pt x="436" y="430" on="1"/>
        <pt x="474" y="511" on="1"/>
        <pt x="534" y="511" on="1"/>
        <pt x="472" y="161" on="1"/>
        <pt x="467" y="130" on="0"/>
        <pt x="461" y="91" on="0"/>
        <pt x="461" y="80" on="1"/>
        <pt x="461" y="53" on="0"/>
        <pt x="493" y="53" on="1"/>
        <pt x="516" y="53" on="0"/>
        <pt x="560" y="71" on="0"/>
        <pt x="568" y="74" on="1"/>
        <pt x="558" y="22" on="1"/>
        <pt x="542" y="11" on="0"/>
        <pt x="496" y="-7" on="0"/>
      </contour>
      <contour>
        <pt x="209" y="-12" on="1"/>
        <pt x="159" y="-12" on="0"/>
        <pt x="85" y="33" on="0"/>
        <pt x="44" y="122" on="0"/>
        <pt x="44" y="189" on="1"/>
        <pt x="44" y="255" on="0"/>
        <pt x="87" y="374" on="0"/>
        <pt x="163" y="465" on="0"/>
        <pt x="265" y="518" on="0"/>
        <pt x="324" y="518" on="1"/>
        <pt x="371" y="518" on="0"/>
        <pt x="436" y="481" on="0"/>
        <pt x="477" y="418" on="0"/>
        <pt x="487" y="377" on="1"/>
        <pt x="446" y="321" on="1"/>
        <pt x="440" y="385" on="0"/>
        <pt x="375" y="460" on="0"/>
        <pt x="322" y="460" on="1"/>
        <pt x="291" y="460" on="0"/>
        <pt x="236" y="431" on="0"/>
        <pt x="190" y="379" on="0"/>
        <pt x="157" y="309" on="0"/>
        <pt x="138" y="226" on="0"/>
        <pt x="138" y="182" on="1"/>
        <pt x="138" y="114" on="0"/>
        <pt x="180" y="45" on="0"/>
        <pt x="223" y="45" on="1"/>
        <pt x="256" y="45" on="0"/>
        <pt x="315" y="86" on="0"/>
        <pt x="376" y="167" on="0"/>
        <pt x="410" y="227" on="1"/>
        <pt x="434" y="199" on="1"/>
        <pt x="399" y="132" on="0"/>
        <pt x="332" y="38" on="0"/>
        <pt x="258" y="-12" on="0"/>
      </contour>
    </TTGlyph>
    <TTGlyph name="uni0062" xMin="54" yMin="-12" xMax="549" yMax="735">
      <contour>
        <pt x="255" y="-12" on="1"/>
        <pt x="183" y="-12" on="0"/>
        <pt x="85" y="35" on="0"/>
        <pt x="54" y="64" on="1"/>
        <pt x="153" y="642" on="1"/>
        <pt x="157" y="665" on="0"/>
        <pt x="121" y="680" on="0"/>
        <pt x="83" y="687" on="1"/>
        <pt x="72" y="689" on="1"/>
        <pt x="80" y="735" on="1"/>
        <pt x="257" y="735" on="1"/>
        <pt x="142" y="59" on="1"/>
        <pt x="120" y="76" on="0"/>
        <pt x="108" y="118" on="0"/>
        <pt x="118" y="143" on="1"/>
        <pt x="127" y="113" on="0"/>
        <pt x="165" y="69" on="0"/>
        <pt x="222" y="46" on="0"/>
        <pt x="258" y="46" on="1"/>
        <pt x="301" y="46" on="0"/>
        <pt x="373" y="90" on="0"/>
        <pt x="426" y="167" on="0"/>
        <pt x="455" y="267" on="0"/>
        <pt x="455" y="322" on="1"/>
        <pt x="455" y="368" on="0"/>
        <pt x="435" y="430" on="0"/>
        <pt x="395" y="461" on="0"/>
        <pt x="363" y="461" on="1"/>
        <pt x="329" y="461" on="0"/>
        <pt x="265" y="421" on="0"/>
        <pt x="199" y="343" on="0"/>
        <pt x="162" y="285" on="1"/>
        <pt x="162" y="290" on="0"/>
        <pt x="150" y="303" on="0"/>
        <pt x="138" y="314" on="0"/>
        <pt x="137" y="314" on="1"/>
        <pt x="175" y="379" on="0"/>
        <pt x="247" y="470" on="0"/>
        <pt x="327" y="518" on="0"/>
        <pt x="377" y="518" on="1"/>
        <pt x="430" y="518" on="0"/>
        <pt x="507" y="472" on="0"/>
        <pt x="549" y="382" on="0"/>
        <pt x="549" y="315" on="1"/>
        <pt x="549" y="249" on="0"/>
        <pt x="505" y="131" on="0"/>
        <pt x="426" y="40" on="0"/>
        <pt x="319" y="-12" on="0"/>
      </contour>
    </TTGlyph>
    <TTGlyph name="uni0063" xMin="44" yMin="-12" xMax="508" yMax="518">
      <contour>
        <pt x="329" y="518" on="1"/>
        <pt x="372" y="518" on="0"/>
        <pt x="441" y="499" on="0"/>
        <pt x="492" y="468" on="0"/>
        <pt x="508" y="450" on="1"/>
        <pt x="486" y="329" on="1"/>
        <pt x="400" y="329" on="1"/>
        <pt x="420" y="437" on="1"/>
        <pt x="434" y="437" on="0"/>
        <pt x="456" y="415" on="0"/>
        <pt x="465" y="384" on="0"/>
        <pt x="459" y="370" on="1"/>
        <pt x="446" y="408" on="0"/>
        <pt x="380" y="461" on="0"/>
        <pt x="325" y="461" on="1"/>
        <pt x="282" y="461" on="0"/>
        <pt x="213" y="421" on="0"/>
        <pt x="164" y="350" on="0"/>
        <pt x="138" y="258" on="0"/>
        <pt x="138" y="207" on="1"/>
        <pt x="138" y="131" on="0"/>
        <pt x="210" y="45" on="0"/>
        <pt x="272" y="45" on="1"/>
        <pt x="316" y="45" on="0"/>
        <pt x="376" y="85" on="0"/>
        <pt x="415" y="141" on="0"/>
        <pt x="425" y="164" on="1"/>
        <pt x="473" y="131" on="1"/>
        <pt x="439" y="55" on="0"/>
        <pt x="332" y="-12" on="0"/>
        <pt x="267" y="-12" on="1"/>
        <pt x="207" y="-12" on="0"/>
        <pt x="105" y="41" on="0"/>
        <pt x="44" y="145" on="0"/>
        <pt x="44" y="221" on="1"/>
        <pt x="44" y="284" on="0"/>
        <pt x="86" y="393" on="0"/>
        <pt x="163" y="473" on="0"/>
        <pt x="267" y="518" on="0"/>
      </contour>
    </TTGlyph>
    <TTGlyph name="uni0064" xMin="44" yMin="-12" xMax="592" yMax="735">
      <contour>
        <pt x="216" y="-12" on="1"/>
        <pt x="164" y="-12" on="0"/>
        <pt x="86" y="34" on="0"/>
        <pt x="44" y="124" on="0"/>
        <pt x="44" y="191" on="1"/>
        <pt x="44" y="257" on="0"/>
        <pt x="88" y="375" on="0"/>
        <pt x="167" y="466" on="0"/>
        <pt x="274" y="518" on="0"/>
        <pt x="338" y="518" on="1"/>
        <pt x="384" y="518" on="0"/>
        <pt x="456" y="490" on="0"/>
        <pt x="510" y="439" on="0"/>
        <pt x="529" y="405" on="1"/>
        <pt x="478" y="349" on="1"/>
        <pt x="466" y="402" on="0"/>
        <pt x="390" y="460" on="0"/>
        <pt x="335" y="460" on="1"/>
        <pt x="301" y="460" on="0"/>
        <pt x="241" y="431" on="0"/>
        <pt x="192" y="379" on="0"/>
        <pt x="157" y="310" on="0"/>
        <pt x="138" y="228" on="0"/>
        <pt x="138" y="184" on="1"/>
        <pt x="138" y="138" on="0"/>
        <pt x="158" y="76" on="0"/>
        <pt x="199" y="45" on="0"/>
        <pt x="230" y="45" on="1"/>
        <pt x="264" y="45" on="0"/>
        <pt x="328" y="85" on="0"/>
        <pt x="395" y="167" on="0"/>
        <pt x="431" y="228" on="1"/>
        <pt x="456" y="199" on="1"/>
        <pt x="419" y="131" on="0"/>
        <pt x="346" y="37" on="0"/>
        <pt x="266" y="-12" on="0"/>
      </contour>
      <contour>
        <pt x="488" y="-7" on="1"/>
        <pt x="452" y="-7" on="0"/>
        <pt x="404" y="37" on="0"/>
        <pt x="404" y="77" on="1"/>
        <pt x="404" y="91" on="0"/>
        <pt x="408" y="120" on="0"/>
        <pt x="413" y="141" on="1"/>
        <pt x="399" y="128" on="1"/>
        <pt x="488" y="642" on="1"/>
        <pt x="492" y="665" on="0"/>
        <pt x="456" y="680" on="0"/>
        <pt x="418" y="687" on="1"/>
        <pt x="407" y="689" on="1"/>
        <pt x="415" y="735" on="1"/>
        <pt x="592" y="735" on="1"/>
        <pt x="493" y="161" on="1"/>
        <pt x="488" y="130" on="0"/>
        <pt x="482" y="91" on="0"/>
        <pt x="482" y="80" on="1"/>
        <pt x="482" y="66" on="0"/>
        <pt x="498" y="53" on="0"/>
        <pt x="514" y="53" on="1"/>
        <pt x="537" y="53" on="0"/>
        <pt x="581" y="71" on="0"/>
        <pt x="589" y="74" on="1"/>
        <pt x="579" y="22" on="1"/>
        <pt x="564" y="11" on="0"/>
        <pt x="518" y="-7" on="0"/>
      </contour>
    </TTGlyph>
    <TTGlyph name="uni0065" xMin="44" yMin="-12" xMax="476" yMax="518">
      <contour>
        <pt x="256" y="-12" on="1"/>
        <pt x="196" y="-12" on="0"/>
        <pt x="100" y="40" on="0"/>
        <pt x="44" y="141" on="0"/>
        <pt x="44" y="214" on="1"/>
        <pt x="44" y="270" on="0"/>
        <pt x="82" y="378" on="0"/>
        <pt x="153" y="466" on="0"/>
        <pt x="254" y="518" on="0"/>
        <pt x="316" y="518" on="1"/>
        <pt x="391" y="518" on="0"/>
        <pt x="476" y="445" on="0"/>
        <pt x="476" y="388" on="1"/>
        <pt x="476" y="342" on="0"/>
        <pt x="430" y="271" on="0"/>
        <pt x="338" y="222" on="0"/>
        <pt x="200" y="198" on="0"/>
        <pt x="108" y="198" on="1"/>
        <pt x="116" y="249" on="1"/>
        <pt x="220" y="251" on="0"/>
        <pt x="339" y="283" on="0"/>
        <pt x="389" y="344" on="0"/>
        <pt x="389" y="388" on="1"/>
        <pt x="389" y="421" on="0"/>
        <pt x="349" y="461" on="0"/>
        <pt x="311" y="461" on="1"/>
        <pt x="264" y="461" on="0"/>
        <pt x="183" y="394" on="0"/>
        <pt x="135" y="277" on="0"/>
        <pt x="135" y="202" on="1"/>
        <pt x="135" y="128" on="0"/>
        <pt x="200" y="45" on="0"/>
        <pt x="261" y="45" on="1"/>
        <pt x="316" y="45" on="0"/>
        <pt x="386" y="110" on="0"/>
        <pt x="406" y="150" on="1"/>
        <pt x="452" y="115" on="1"/>
        <pt x="433" y="74" on="0"/>
        <pt x="374" y="17" on="0"/>
        <pt x="299" y="-12" on="0"/>
      </contour>
    </TTGlyph>
    <TTGlyph name="uni0066" xMin="43" yMin="-223" xMax="464" yMax="752">
      <contour>
        <pt x="52" y="508" on="1"/>
        <pt x="395" y="508" on="1"/>
        <pt x="385" y="454" on="1"/>
        <pt x="43" y="454" on="1"/>
      </contour>
      <contour>
        <pt x="364" y="696" on="1"/>
        <pt x="320" y="696" on="0"/>
        <pt x="263" y="638" on="0"/>
        <pt x="251" y="563" on="1"/>
        <pt x="125" y="-223" on="1"/>
        <pt x="55" y="-223" on="1"/>
        <pt x="156" y="557" on="1"/>
        <pt x="163" y="611" on="0"/>
        <pt x="202" y="685" on="0"/>
        <pt x="258" y="731" on="0"/>
        <pt x="327" y="752" on="0"/>
        <pt x="364" y="752" on="1"/>
        <pt x="397" y="752" on="0"/>
        <pt x="449" y="741" on="0"/>
        <pt x="464" y="733" on="1"/>
        <pt x="454" y="672" on="1"/>
        <pt x="435" y="682" on="0"/>
        <pt x="390" y="696" on="0"/>
      </contour>
    </TTGlyph>
    <TTGlyph name="uni0066.alt" xMin="43" yMin="-223" xMax="505" yMax="752">
      <contour>
        <pt x="52" y="508" on="1"/>
        <pt x="395" y="508" on="1"/>
        <pt x="385" y="454" on="1"/>
        <pt x="43" y="454" on="1"/>
      </contour>
      <contour>
        <pt x="366" y="696" on="1"/>
        <pt x="320" y="696" on="0"/>
        <pt x="263" y="638" on="0"/>
        <pt x="251" y="563" on="1"/>
        <pt x="125" y="-223" on="1"/>
        <pt x="55" y="-223" on="1"/>
        <pt x="156" y="557" on="1"/>
        <pt x="163" y="611" on="0"/>
        <pt x="200" y="685" on="0"/>
        <pt x="257" y="731" on="0"/>
        <pt x="329" y="752" on="0"/>
        <pt x="371" y="752" on="1"/>
        <pt x="429" y="752" on="0"/>
        <pt x="498" y="722" on="0"/>
        <pt x="505" y="715" on="1"/>
        <pt x="487" y="614" on="1"/>
        <pt x="406" y="614" on="1"/>
        <pt x="423" y="706" on="1"/>
        <pt x="439" y="707" on="0"/>
        <pt x="458" y="687" on="0"/>
        <pt x="461" y="661" on="0"/>
        <pt x="451" y="652" on="1"/>
        <pt x="443" y="672" on="0"/>
        <pt x="400" y="696" on="0"/>
      </contour>
    </TTGlyph>
    <TTGlyph name="uni0067" xMin="-13" yMin="-236" xMax="554" yMax="518">
      <contour>
        <pt x="201" y="-236" on="1"/>
        <pt x="125" y="-236" on="0"/>
        <pt x="12" y="-183" on="0"/>
        <pt x="-13" y="-143" on="1"/>
        <pt x="2" y="-60" on="1"/>
        <pt x="94" y="-60" on="1"/>
        <pt x="73" y="-179" on="1"/>
        <pt x="58" y="-178" on="0"/>
        <pt x="41" y="-149" on="0"/>
        <pt x="37" y="-106" on="0"/>
        <pt x="41" y="-86" on="1"/>
        <pt x="64" y="-129" on="0"/>
        <pt x="140" y="-179" on="0"/>
        <pt x="204" y="-179" on="1"/>
        <pt x="248" y="-179" on="0"/>
        <pt x="316" y="-145" on="0"/>
        <pt x="362" y="-73" on="0"/>
        <pt x="372" y="-17" on="1"/>
        <pt x="453" y="440" on="1"/>
        <pt x="463" y="439" on="1"/>
        <pt x="492" y="511" on="1"/>
        <pt x="554" y="511" on="1"/>
        <pt x="460" y="-24" on="1"/>
        <pt x="442" y="-126" on="0"/>
        <pt x="300" y="-236" on="0"/>
      </contour>
      <contour>
        <pt x="216" y="-12" on="1"/>
        <pt x="164" y="-12" on="0"/>
        <pt x="86" y="34" on="0"/>
        <pt x="44" y="124" on="0"/>
        <pt x="44" y="191" on="1"/>
        <pt x="44" y="257" on="0"/>
        <pt x="88" y="375" on="0"/>
        <pt x="167" y="466" on="0"/>
        <pt x="274" y="518" on="0"/>
        <pt x="338" y="518" on="1"/>
        <pt x="390" y="518" on="0"/>
        <pt x="461" y="481" on="0"/>
        <pt x="506" y="418" on="0"/>
        <pt x="517" y="377" on="1"/>
        <pt x="472" y="321" on="1"/>
        <pt x="465" y="385" on="0"/>
        <pt x="394" y="460" on="0"/>
        <pt x="335" y="460" on="1"/>
        <pt x="301" y="460" on="0"/>
        <pt x="241" y="431" on="0"/>
        <pt x="192" y="379" on="0"/>
        <pt x="157" y="310" on="0"/>
        <pt x="138" y="228" on="0"/>
        <pt x="138" y="184" on="1"/>
        <pt x="138" y="138" on="0"/>
        <pt x="158" y="76" on="0"/>
        <pt x="199" y="45" on="0"/>
        <pt x="230" y="45" on="1"/>
        <pt x="264" y="45" on="0"/>
        <pt x="328" y="85" on="0"/>
        <pt x="395" y="163" on="0"/>
        <pt x="431" y="221" on="1"/>
        <pt x="456" y="192" on="1"/>
        <pt x="419" y="128" on="0"/>
        <pt x="346" y="36" on="0"/>
        <pt x="266" y="-12" on="0"/>
      </contour>
    </TTGlyph>
    <TTGlyph name="uni0067.alt" xMin="-31" yMin="-236" xMax="582" yMax="523">
      <contour>
        <pt x="570" y="441" on="1"/>
        <pt x="537" y="445" on="0"/>
        <pt x="484" y="446" on="0"/>
        <pt x="444" y="434" on="0"/>
        <pt x="429" y="418" on="1"/>
        <pt x="416" y="434" on="1"/>
        <pt x="447" y="477" on="0"/>
        <pt x="514" y="523" on="0"/>
        <pt x="563" y="523" on="1"/>
        <pt x="569" y="523" on="0"/>
        <pt x="579" y="523" on="0"/>
        <pt x="582" y="522" on="1"/>
      </contour>
      <contour>
        <pt x="272" y="209" on="1"/>
        <pt x="301" y="209" on="0"/>
        <pt x="347" y="230" on="0"/>
        <pt x="379" y="268" on="0"/>
        <pt x="396" y="320" on="0"/>
        <pt x="396" y="352" on="1"/>
        <pt x="396" y="387" on="0"/>
        <pt x="372" y="435" on="0"/>
        <pt x="326" y="460" on="0"/>
        <pt x="293" y="460" on="1"/>
        <pt x="265" y="460" on="0"/>
        <pt x="219" y="439" on="0"/>
        <pt x="187" y="401" on="0"/>
        <pt x="170" y="348" on="0"/>
        <pt x="170" y="316" on="1"/>
        <pt x="170" y="281" on="0"/>
        <pt x="194" y="233" on="0"/>
        <pt x="240" y="209" on="0"/>
      </contour>
      <contour>
        <pt x="269" y="150" on="1"/>
        <pt x="211" y="150" on="0"/>
        <pt x="126" y="196" on="0"/>
        <pt x="80" y="274" on="0"/>
        <pt x="80" y="321" on="1"/>
        <pt x="80" y="377" on="0"/>
        <pt x="136" y="466" on="0"/>
        <pt x="234" y="518" on="0"/>
        <pt x="297" y="518" on="1"/>
        <pt x="357" y="518" on="0"/>
        <pt x="441" y="472" on="0"/>
        <pt x="486" y="395" on="0"/>
        <pt x="486" y="348" on="1"/>
        <pt x="486" y="292" on="0"/>
        <pt x="430" y="202" on="0"/>
        <pt x="333" y="150" on="0"/>
      </contour>
      <contour>
        <pt x="194" y="-236" on="1"/>
        <pt x="126" y="-236" on="0"/>
        <pt x="24" y="-206" on="0"/>
        <pt x="-31" y="-148" on="0"/>
        <pt x="-31" y="-105" on="1"/>
        <pt x="-31" y="-75" on="0"/>
        <pt x="-5" y="-30" on="0"/>
        <pt x="57" y="7" on="0"/>
        <pt x="109" y="22" on="1"/>
        <pt x="139" y="-7" on="1"/>
        <pt x="91" y="-20" on="0"/>
        <pt x="49" y="-66" on="0"/>
        <pt x="49" y="-97" on="1"/>
        <pt x="49" y="-134" on="0"/>
        <pt x="120" y="-176" on="0"/>
        <pt x="205" y="-176" on="1"/>
        <pt x="223" y="-176" on="1"/>
        <pt x="287" y="-176" on="0"/>
        <pt x="378" y="-149" on="0"/>
        <pt x="428" y="-101" on="0"/>
        <pt x="428" y="-71" on="1"/>
        <pt x="428" y="-49" on="0"/>
        <pt x="397" y="-25" on="0"/>
        <pt x="353" y="-25" on="1"/>
        <pt x="78" y="-25" on="1"/>
        <pt x="103" y="-13" on="1"/>
        <pt x="71" y="3" on="0"/>
        <pt x="34" y="48" on="0"/>
        <pt x="34" y="79" on="1"/>
        <pt x="34" y="108" on="0"/>
        <pt x="64" y="154" on="0"/>
        <pt x="123" y="189" on="0"/>
        <pt x="166" y="201" on="1"/>
        <pt x="216" y="175" on="1"/>
        <pt x="173" y="167" on="0"/>
        <pt x="117" y="128" on="0"/>
        <pt x="117" y="101" on="1"/>
        <pt x="117" y="79" on="0"/>
        <pt x="152" y="61" on="0"/>
        <pt x="197" y="61" on="1"/>
        <pt x="365" y="61" on="1"/>
        <pt x="443" y="61" on="0"/>
        <pt x="513" y="1" on="0"/>
        <pt x="513" y="-48" on="1"/>
        <pt x="513" y="-109" on="0"/>
        <pt x="437" y="-193" on="0"/>
        <pt x="302" y="-236" on="0"/>
        <pt x="213" y="-236" on="1"/>
      </contour>
    </TTGlyph>
    <TTGlyph name="uni0068" xMin="53" yMin="-7" xMax="572" yMax="735">
      <contour>
        <pt x="142" y="0" on="1"/>
        <pt x="53" y="0" on="1"/>
        <pt x="164" y="642" on="1"/>
        <pt x="168" y="665" on="0"/>
        <pt x="132" y="680" on="0"/>
        <pt x="94" y="687" on="1"/>
        <pt x="83" y="689" on="1"/>
        <pt x="91" y="735" on="1"/>
        <pt x="268" y="735" on="1"/>
      </contour>
      <contour>
        <pt x="390" y="179" on="1"/>
        <pt x="418" y="321" on="1"/>
        <pt x="423" y="347" on="0"/>
        <pt x="428" y="380" on="0"/>
        <pt x="428" y="392" on="1"/>
        <pt x="428" y="421" on="0"/>
        <pt x="401" y="455" on="0"/>
        <pt x="369" y="455" on="1"/>
        <pt x="321" y="455" on="0"/>
        <pt x="225" y="374" on="0"/>
        <pt x="172" y="290" on="1"/>
        <pt x="148" y="315" on="1"/>
        <pt x="186" y="377" on="0"/>
        <pt x="261" y="468" on="0"/>
        <pt x="345" y="518" on="0"/>
        <pt x="396" y="518" on="1"/>
        <pt x="452" y="518" on="0"/>
        <pt x="518" y="457" on="0"/>
        <pt x="518" y="401" on="1"/>
        <pt x="518" y="388" on="0"/>
        <pt x="514" y="349" on="0"/>
        <pt x="509" y="325" on="1"/>
        <pt x="478" y="161" on="1"/>
        <pt x="472" y="130" on="0"/>
        <pt x="465" y="91" on="0"/>
        <pt x="465" y="80" on="1"/>
        <pt x="465" y="67" on="0"/>
        <pt x="481" y="53" on="0"/>
        <pt x="497" y="53" on="1"/>
        <pt x="520" y="53" on="0"/>
        <pt x="564" y="71" on="0"/>
        <pt x="572" y="74" on="1"/>
        <pt x="562" y="22" on="1"/>
        <pt x="547" y="11" on="0"/>
        <pt x="498" y="-7" on="0"/>
        <pt x="468" y="-7" on="1"/>
        <pt x="427" y="-7" on="0"/>
        <pt x="375" y="32" on="0"/>
        <pt x="375" y="71" on="1"/>
        <pt x="375" y="91" on="0"/>
        <pt x="381" y="135" on="0"/>
      </contour>
    </TTGlyph>
    <TTGlyph name="uni0069" xMin="53" yMin="-7" xMax="279" yMax="746">
      <contour>
        <pt x="182" y="161" on="1"/>
        <pt x="177" y="130" on="0"/>
        <pt x="172" y="91" on="0"/>
        <pt x="172" y="80" on="1"/>
        <pt x="172" y="67" on="0"/>
        <pt x="188" y="53" on="0"/>
        <pt x="204" y="53" on="1"/>
        <pt x="227" y="53" on="0"/>
        <pt x="271" y="71" on="0"/>
        <pt x="279" y="74" on="1"/>
        <pt x="269" y="22" on="1"/>
        <pt x="254" y="11" on="0"/>
        <pt x="206" y="-7" on="0"/>
        <pt x="176" y="-7" on="1"/>
        <pt x="135" y="-7" on="0"/>
        <pt x="82" y="32" on="0"/>
        <pt x="82" y="71" on="1"/>
        <pt x="82" y="91" on="0"/>
        <pt x="90" y="135" on="0"/>
        <pt x="97" y="179" on="1"/>
        <pt x="138" y="413" on="1"/>
        <pt x="143" y="437" on="0"/>
        <pt x="106" y="455" on="0"/>
        <pt x="68" y="460" on="1"/>
        <pt x="53" y="462" on="1"/>
        <pt x="62" y="508" on="1"/>
        <pt x="243" y="508" on="1"/>
      </contour>
      <contour>
        <pt x="209" y="625" on="1"/>
        <pt x="183" y="625" on="0"/>
        <pt x="148" y="658" on="0"/>
        <pt x="148" y="686" on="1"/>
        <pt x="148" y="714" on="0"/>
        <pt x="183" y="746" on="0"/>
        <pt x="209" y="746" on="1"/>
        <pt x="235" y="746" on="0"/>
        <pt x="270" y="714" on="0"/>
        <pt x="270" y="686" on="1"/>
        <pt x="270" y="658" on="0"/>
        <pt x="235" y="625" on="0"/>
      </contour>
    </TTGlyph>
    <TTGlyph name="uni006A" xMin="-153" yMin="-236" xMax="276" yMax="746">
      <contour>
        <pt x="215" y="625" on="1"/>
        <pt x="189" y="625" on="0"/>
        <pt x="154" y="658" on="0"/>
        <pt x="154" y="686" on="1"/>
        <pt x="154" y="714" on="0"/>
        <pt x="189" y="746" on="0"/>
        <pt x="215" y="746" on="1"/>
        <pt x="241" y="746" on="0"/>
        <pt x="276" y="714" on="0"/>
        <pt x="276" y="686" on="1"/>
        <pt x="276" y="658" on="0"/>
        <pt x="241" y="625" on="0"/>
      </contour>
      <contour>
        <pt x="68" y="-37" on="1"/>
        <pt x="147" y="415" on="1"/>
        <pt x="151" y="437" on="0"/>
        <pt x="115" y="455" on="0"/>
        <pt x="74" y="460" on="1"/>
        <pt x="58" y="462" on="1"/>
        <pt x="66" y="508" on="1"/>
        <pt x="249" y="508" on="1"/>
        <pt x="152" y="-46" on="1"/>
        <pt x="139" y="-119" on="0"/>
        <pt x="82" y="-202" on="0"/>
        <pt x="-1" y="-236" on="0"/>
        <pt x="-52" y="-236" on="1"/>
        <pt x="-84" y="-236" on="0"/>
        <pt x="-136" y="-224" on="0"/>
        <pt x="-153" y="-217" on="1"/>
        <pt x="-141" y="-155" on="1"/>
        <pt x="-126" y="-159" on="0"/>
        <pt x="-80" y="-174" on="0"/>
        <pt x="-52" y="-174" on="1"/>
        <pt x="-21" y="-174" on="0"/>
        <pt x="27" y="-148" on="0"/>
        <pt x="59" y="-87" on="0"/>
      </contour>
    </TTGlyph>
    <TTGlyph name="uni006B" xMin="53" yMin="-7" xMax="540" yMax="735">
      <contour>
        <pt x="303" y="311" on="1"/>
        <pt x="299" y="319" on="0"/>
        <pt x="287" y="313" on="0"/>
        <pt x="270" y="284" on="0"/>
        <pt x="258" y="255" on="1"/>
        <pt x="328" y="315" on="0"/>
        <pt x="469" y="437" on="0"/>
        <pt x="540" y="498" on="1"/>
        <pt x="540" y="508" on="1"/>
        <pt x="450" y="508" on="1"/>
        <pt x="412" y="472" on="0"/>
        <pt x="337" y="399" on="0"/>
        <pt x="263" y="328" on="0"/>
        <pt x="226" y="292" on="1"/>
        <pt x="225" y="287" on="1"/>
        <pt x="283" y="133" on="1"/>
        <pt x="300" y="88" on="0"/>
        <pt x="338" y="25" on="0"/>
        <pt x="386" y="-7" on="0"/>
        <pt x="416" y="-7" on="1"/>
        <pt x="441" y="-7" on="0"/>
        <pt x="487" y="15" on="0"/>
        <pt x="500" y="27" on="1"/>
        <pt x="510" y="79" on="1"/>
        <pt x="501" y="76" on="0"/>
        <pt x="462" y="63" on="0"/>
        <pt x="442" y="63" on="1"/>
        <pt x="428" y="63" on="0"/>
        <pt x="401" y="86" on="0"/>
        <pt x="376" y="127" on="0"/>
        <pt x="365" y="155" on="1"/>
      </contour>
      <contour>
        <pt x="142" y="0" on="1"/>
        <pt x="53" y="0" on="1"/>
        <pt x="164" y="642" on="1"/>
        <pt x="168" y="665" on="0"/>
        <pt x="132" y="680" on="0"/>
        <pt x="94" y="687" on="1"/>
        <pt x="83" y="689" on="1"/>
        <pt x="91" y="735" on="1"/>
        <pt x="268" y="735" on="1"/>
      </contour>
    </TTGlyph>
    <TTGlyph name="uni006C" xMin="68" yMin="-7" xMax="266" yMax="735">
      <contour>
        <pt x="166" y="161" on="1"/>
        <pt x="161" y="130" on="0"/>
        <pt x="156" y="91" on="0"/>
        <pt x="156" y="80" on="1"/>
        <pt x="156" y="67" on="0"/>
        <pt x="172" y="53" on="0"/>
        <pt x="189" y="53" on="1"/>
        <pt x="212" y="53" on="0"/>
        <pt x="256" y="71" on="0"/>
        <pt x="264" y="74" on="1"/>
        <pt x="254" y="22" on="1"/>
        <pt x="239" y="11" on="0"/>
        <pt x="191" y="-7" on="0"/>
        <pt x="161" y="-7" on="1"/>
        <pt x="120" y="-7" on="0"/>
        <pt x="68" y="32" on="0"/>
        <pt x="68" y="71" on="1"/>
        <pt x="68" y="91" on="0"/>
        <pt x="76" y="137" on="0"/>
        <pt x="83" y="181" on="1"/>
        <pt x="164" y="642" on="1"/>
        <pt x="168" y="665" on="0"/>
        <pt x="132" y="680" on="0"/>
        <pt x="94" y="687" on="1"/>
        <pt x="83" y="689" on="1"/>
        <pt x="91" y="735" on="1"/>
        <pt x="266" y="735" on="1"/>
      </contour>
    </TTGlyph>
    <TTGlyph name="uni006D" xMin="54" yMin="-7" xMax="843" yMax="518">
      <contour>
        <pt x="153" y="0" on="1"/>
        <pt x="64" y="0" on="1"/>
        <pt x="138" y="415" on="1"/>
        <pt x="142" y="438" on="0"/>
        <pt x="106" y="455" on="0"/>
        <pt x="68" y="460" on="1"/>
        <pt x="54" y="462" on="1"/>
        <pt x="62" y="508" on="1"/>
        <pt x="232" y="508" on="1"/>
        <pt x="210" y="377" on="1"/>
        <pt x="216" y="364" on="1"/>
      </contour>
      <contour>
        <pt x="661" y="179" on="1"/>
        <pt x="689" y="321" on="1"/>
        <pt x="694" y="347" on="0"/>
        <pt x="699" y="380" on="0"/>
        <pt x="699" y="392" on="1"/>
        <pt x="699" y="421" on="0"/>
        <pt x="678" y="455" on="0"/>
        <pt x="652" y="455" on="1"/>
        <pt x="606" y="455" on="0"/>
        <pt x="520" y="373" on="0"/>
        <pt x="467" y="290" on="1"/>
        <pt x="466" y="297" on="0"/>
        <pt x="443" y="314" on="0"/>
        <pt x="443" y="315" on="1"/>
        <pt x="480" y="376" on="0"/>
        <pt x="551" y="467" on="0"/>
        <pt x="630" y="518" on="0"/>
        <pt x="679" y="518" on="1"/>
        <pt x="729" y="518" on="0"/>
        <pt x="789" y="457" on="0"/>
        <pt x="789" y="401" on="1"/>
        <pt x="789" y="388" on="0"/>
        <pt x="785" y="349" on="0"/>
        <pt x="780" y="325" on="1"/>
        <pt x="749" y="161" on="1"/>
        <pt x="743" y="130" on="0"/>
        <pt x="736" y="91" on="0"/>
        <pt x="736" y="80" on="1"/>
        <pt x="736" y="67" on="0"/>
        <pt x="752" y="53" on="0"/>
        <pt x="768" y="53" on="1"/>
        <pt x="791" y="53" on="0"/>
        <pt x="835" y="71" on="0"/>
        <pt x="843" y="74" on="1"/>
        <pt x="833" y="22" on="1"/>
        <pt x="818" y="11" on="0"/>
        <pt x="769" y="-7" on="0"/>
        <pt x="739" y="-7" on="1"/>
        <pt x="698" y="-7" on="0"/>
        <pt x="646" y="32" on="0"/>
        <pt x="646" y="71" on="1"/>
        <pt x="646" y="91" on="0"/>
        <pt x="652" y="135" on="0"/>
      </contour>
      <contour>
        <pt x="437" y="0" on="1"/>
        <pt x="348" y="0" on="1"/>
        <pt x="405" y="321" on="1"/>
        <pt x="410" y="347" on="0"/>
        <pt x="414" y="380" on="0"/>
        <pt x="414" y="392" on="1"/>
        <pt x="414" y="421" on="0"/>
        <pt x="393" y="455" on="0"/>
        <pt x="367" y="455" on="1"/>
        <pt x="322" y="455" on="0"/>
        <pt x="235" y="372" on="0"/>
        <pt x="183" y="290" on="1"/>
        <pt x="182" y="297" on="0"/>
        <pt x="159" y="314" on="0"/>
        <pt x="159" y="315" on="1"/>
        <pt x="196" y="376" on="0"/>
        <pt x="266" y="467" on="0"/>
        <pt x="345" y="518" on="0"/>
        <pt x="393" y="518" on="1"/>
        <pt x="442" y="518" on="0"/>
        <pt x="502" y="457" on="0"/>
        <pt x="502" y="401" on="1"/>
        <pt x="502" y="388" on="0"/>
        <pt x="499" y="349" on="0"/>
        <pt x="494" y="325" on="1"/>
      </contour>
    </TTGlyph>
    <TTGlyph name="uni006E" xMin="54" yMin="-7" xMax="583" yMax="518">
      <contour>
        <pt x="153" y="0" on="1"/>
        <pt x="64" y="0" on="1"/>
        <pt x="138" y="415" on="1"/>
        <pt x="142" y="438" on="0"/>
        <pt x="106" y="455" on="0"/>
        <pt x="68" y="460" on="1"/>
        <pt x="54" y="462" on="1"/>
        <pt x="62" y="508" on="1"/>
        <pt x="232" y="508" on="1"/>
        <pt x="210" y="377" on="1"/>
        <pt x="216" y="364" on="1"/>
      </contour>
      <contour>
        <pt x="401" y="179" on="1"/>
        <pt x="429" y="321" on="1"/>
        <pt x="434" y="347" on="0"/>
        <pt x="439" y="380" on="0"/>
        <pt x="439" y="392" on="1"/>
        <pt x="439" y="421" on="0"/>
        <pt x="412" y="455" on="0"/>
        <pt x="380" y="455" on="1"/>
        <pt x="332" y="455" on="0"/>
        <pt x="236" y="374" on="0"/>
        <pt x="183" y="290" on="1"/>
        <pt x="159" y="315" on="1"/>
        <pt x="196" y="376" on="0"/>
        <pt x="272" y="468" on="0"/>
        <pt x="356" y="518" on="0"/>
        <pt x="407" y="518" on="1"/>
        <pt x="463" y="518" on="0"/>
        <pt x="529" y="457" on="0"/>
        <pt x="529" y="401" on="1"/>
        <pt x="529" y="388" on="0"/>
        <pt x="525" y="349" on="0"/>
        <pt x="520" y="325" on="1"/>
        <pt x="489" y="161" on="1"/>
        <pt x="483" y="130" on="0"/>
        <pt x="476" y="91" on="0"/>
        <pt x="476" y="80" on="1"/>
        <pt x="476" y="67" on="0"/>
        <pt x="492" y="53" on="0"/>
        <pt x="508" y="53" on="1"/>
        <pt x="531" y="53" on="0"/>
        <pt x="575" y="71" on="0"/>
        <pt x="583" y="74" on="1"/>
        <pt x="573" y="22" on="1"/>
        <pt x="558" y="11" on="0"/>
        <pt x="509" y="-7" on="0"/>
        <pt x="479" y="-7" on="1"/>
        <pt x="438" y="-7" on="0"/>
        <pt x="386" y="32" on="0"/>
        <pt x="386" y="71" on="1"/>
        <pt x="386" y="91" on="0"/>
        <pt x="392" y="135" on="0"/>
      </contour>
    </TTGlyph>
    <TTGlyph name="uni006F" xMin="44" yMin="-12" xMax="539" yMax="518">
      <contour>
        <pt x="268" y="-12" on="1"/>
        <pt x="205" y="-12" on="0"/>
        <pt x="103" y="44" on="0"/>
        <pt x="44" y="149" on="0"/>
        <pt x="44" y="220" on="1"/>
        <pt x="44" y="287" on="0"/>
        <pt x="86" y="397" on="0"/>
        <pt x="161" y="476" on="0"/>
        <pt x="259" y="518" on="0"/>
        <pt x="315" y="518" on="1"/>
        <pt x="379" y="518" on="0"/>
        <pt x="480" y="461" on="0"/>
        <pt x="539" y="356" on="0"/>
        <pt x="539" y="284" on="1"/>
        <pt x="539" y="217" on="0"/>
        <pt x="497" y="108" on="0"/>
        <pt x="423" y="30" on="0"/>
        <pt x="324" y="-12" on="0"/>
      </contour>
      <contour>
        <pt x="314" y="461" on="1"/>
        <pt x="278" y="461" on="0"/>
        <pt x="222" y="431" on="0"/>
        <pt x="180" y="380" on="0"/>
        <pt x="152" y="314" on="0"/>
        <pt x="138" y="242" on="0"/>
        <pt x="138" y="206" on="1"/>
        <pt x="138" y="156" on="0"/>
        <pt x="170" y="84" on="0"/>
        <pt x="229" y="45" on="0"/>
        <pt x="269" y="45" on="1"/>
        <pt x="305" y="45" on="0"/>
        <pt x="361" y="75" on="0"/>
        <pt x="403" y="126" on="0"/>
        <pt x="431" y="192" on="0"/>
        <pt x="445" y="264" on="0"/>
        <pt x="445" y="300" on="1"/>
        <pt x="445" y="350" on="0"/>
        <pt x="413" y="422" on="0"/>
        <pt x="355" y="461" on="0"/>
      </contour>
    </TTGlyph>
    <TTGlyph name="uni0070" xMin="-61" yMin="-223" xMax="571" yMax="518">
      <contour>
        <pt x="-61" y="-223" on="1"/>
        <pt x="-53" y="-178" on="1"/>
        <pt x="-52" y="-178" on="1"/>
        <pt x="-15" y="-178" on="0"/>
        <pt x="35" y="-165" on="0"/>
        <pt x="39" y="-143" on="1"/>
        <pt x="138" y="415" on="1"/>
        <pt x="142" y="438" on="0"/>
        <pt x="106" y="455" on="0"/>
        <pt x="68" y="460" on="1"/>
        <pt x="54" y="462" on="1"/>
        <pt x="62" y="508" on="1"/>
        <pt x="232" y="508" on="1"/>
        <pt x="207" y="360" on="1"/>
        <pt x="218" y="376" on="1"/>
        <pt x="124" y="-167" on="1"/>
        <pt x="124" y="-170" on="0"/>
        <pt x="139" y="-174" on="0"/>
        <pt x="163" y="-177" on="0"/>
        <pt x="190" y="-178" on="0"/>
        <pt x="200" y="-178" on="1"/>
        <pt x="229" y="-178" on="1"/>
        <pt x="221" y="-223" on="1"/>
      </contour>
      <contour>
        <pt x="277" y="-12" on="1"/>
        <pt x="232" y="-12" on="0"/>
        <pt x="159" y="16" on="0"/>
        <pt x="105" y="67" on="0"/>
        <pt x="86" y="101" on="1"/>
        <pt x="88" y="105" on="0"/>
        <pt x="105" y="129" on="0"/>
        <pt x="127" y="154" on="0"/>
        <pt x="137" y="157" on="1"/>
        <pt x="149" y="105" on="0"/>
        <pt x="225" y="46" on="0"/>
        <pt x="280" y="46" on="1"/>
        <pt x="323" y="46" on="0"/>
        <pt x="395" y="90" on="0"/>
        <pt x="448" y="167" on="0"/>
        <pt x="477" y="267" on="0"/>
        <pt x="477" y="322" on="1"/>
        <pt x="477" y="368" on="0"/>
        <pt x="457" y="430" on="0"/>
        <pt x="417" y="461" on="0"/>
        <pt x="385" y="461" on="1"/>
        <pt x="351" y="461" on="0"/>
        <pt x="287" y="421" on="0"/>
        <pt x="221" y="343" on="0"/>
        <pt x="184" y="285" on="1"/>
        <pt x="184" y="290" on="0"/>
        <pt x="172" y="303" on="0"/>
        <pt x="160" y="314" on="0"/>
        <pt x="159" y="314" on="1"/>
        <pt x="197" y="379" on="0"/>
        <pt x="269" y="470" on="0"/>
        <pt x="349" y="518" on="0"/>
        <pt x="399" y="518" on="1"/>
        <pt x="452" y="518" on="0"/>
        <pt x="529" y="472" on="0"/>
        <pt x="571" y="382" on="0"/>
        <pt x="571" y="315" on="1"/>
        <pt x="571" y="249" on="0"/>
        <pt x="527" y="131" on="0"/>
        <pt x="448" y="40" on="0"/>
        <pt x="341" y="-12" on="0"/>
      </contour>
    </TTGlyph>
    <TTGlyph name="uni0071" xMin="44" yMin="-223" xMax="554" yMax="518">
      <contour>
        <pt x="453" y="440" on="1"/>
        <pt x="463" y="439" on="1"/>
        <pt x="492" y="511" on="1"/>
        <pt x="554" y="511" on="1"/>
        <pt x="439" y="-142" on="1"/>
        <pt x="435" y="-164" on="0"/>
        <pt x="479" y="-178" on="0"/>
        <pt x="515" y="-178" on="1"/>
        <pt x="517" y="-178" on="1"/>
        <pt x="509" y="-223" on="1"/>
        <pt x="234" y="-223" on="1"/>
        <pt x="242" y="-178" on="1"/>
        <pt x="271" y="-178" on="1"/>
        <pt x="284" y="-178" on="0"/>
        <pt x="318" y="-176" on="0"/>
        <pt x="345" y="-171" on="0"/>
        <pt x="345" y="-168" on="1"/>
      </contour>
      <contour>
        <pt x="216" y="-12" on="1"/>
        <pt x="164" y="-12" on="0"/>
        <pt x="86" y="34" on="0"/>
        <pt x="44" y="124" on="0"/>
        <pt x="44" y="191" on="1"/>
        <pt x="44" y="257" on="0"/>
        <pt x="88" y="375" on="0"/>
        <pt x="167" y="466" on="0"/>
        <pt x="274" y="518" on="0"/>
        <pt x="338" y="518" on="1"/>
        <pt x="390" y="518" on="0"/>
        <pt x="461" y="481" on="0"/>
        <pt x="506" y="418" on="0"/>
        <pt x="517" y="377" on="1"/>
        <pt x="472" y="321" on="1"/>
        <pt x="465" y="385" on="0"/>
        <pt x="394" y="460" on="0"/>
        <pt x="335" y="460" on="1"/>
        <pt x="301" y="460" on="0"/>
        <pt x="241" y="431" on="0"/>
        <pt x="192" y="379" on="0"/>
        <pt x="157" y="310" on="0"/>
        <pt x="138" y="228" on="0"/>
        <pt x="138" y="184" on="1"/>
        <pt x="138" y="138" on="0"/>
        <pt x="158" y="76" on="0"/>
        <pt x="199" y="45" on="0"/>
        <pt x="230" y="45" on="1"/>
        <pt x="264" y="45" on="0"/>
        <pt x="328" y="85" on="0"/>
        <pt x="395" y="163" on="0"/>
        <pt x="431" y="221" on="1"/>
        <pt x="456" y="192" on="1"/>
        <pt x="419" y="128" on="0"/>
        <pt x="346" y="36" on="0"/>
        <pt x="266" y="-12" on="0"/>
      </contour>
    </TTGlyph>
    <TTGlyph name="uni0072" xMin="54" yMin="0" xMax="405" yMax="518">
      <contour>
        <pt x="342" y="434" on="1"/>
        <pt x="313" y="434" on="0"/>
        <pt x="268" y="405" on="0"/>
        <pt x="220" y="334" on="0"/>
        <pt x="188" y="270" on="1"/>
        <pt x="165" y="293" on="1"/>
        <pt x="190" y="346" on="0"/>
        <pt x="236" y="429" on="0"/>
        <pt x="282" y="487" on="0"/>
        <pt x="334" y="518" on="0"/>
        <pt x="366" y="518" on="1"/>
        <pt x="379" y="518" on="0"/>
        <pt x="400" y="514" on="0"/>
        <pt x="405" y="512" on="1"/>
        <pt x="390" y="425" on="1"/>
        <pt x="380" y="428" on="0"/>
        <pt x="358" y="434" on="0"/>
      </contour>
      <contour>
        <pt x="153" y="0" on="1"/>
        <pt x="64" y="0" on="1"/>
        <pt x="138" y="415" on="1"/>
        <pt x="142" y="438" on="0"/>
        <pt x="106" y="455" on="0"/>
        <pt x="68" y="460" on="1"/>
        <pt x="54" y="462" on="1"/>
        <pt x="62" y="508" on="1"/>
        <pt x="232" y="508" on="1"/>
        <pt x="208" y="365" on="1"/>
        <pt x="216" y="364" on="1"/>
      </contour>
    </TTGlyph>
    <TTGlyph name="uni0073" xMin="5" yMin="-11" xMax="434" yMax="518">
      <contour>
        <pt x="216" y="-11" on="1"/>
        <pt x="165" y="-11" on="0"/>
        <pt x="85" y="11" on="0"/>
        <pt x="26" y="47" on="0"/>
        <pt x="5" y="69" on="1"/>
        <pt x="23" y="171" on="1"/>
        <pt x="111" y="171" on="1"/>
        <pt x="86" y="44" on="1"/>
        <pt x="64" y="53" on="0"/>
        <pt x="61" y="91" on="0"/>
        <pt x="74" y="113" on="1"/>
        <pt x="96" y="80" on="0"/>
        <pt x="169" y="46" on="0"/>
        <pt x="223" y="46" on="1"/>
        <pt x="273" y="46" on="0"/>
        <pt x="329" y="95" on="0"/>
        <pt x="329" y="132" on="1"/>
        <pt x="329" y="155" on="0"/>
        <pt x="297" y="186" on="0"/>
        <pt x="246" y="211" on="0"/>
        <pt x="216" y="224" on="1"/>
        <pt x="183" y="239" on="0"/>
        <pt x="119" y="276" on="0"/>
        <pt x="77" y="330" on="0"/>
        <pt x="77" y="370" on="1"/>
        <pt x="77" y="439" on="0"/>
        <pt x="182" y="518" on="0"/>
        <pt x="266" y="518" on="1"/>
        <pt x="307" y="518" on="0"/>
        <pt x="373" y="502" on="0"/>
        <pt x="421" y="473" on="0"/>
        <pt x="434" y="453" on="1"/>
        <pt x="418" y="360" on="1"/>
        <pt x="332" y="360" on="1"/>
        <pt x="350" y="459" on="1"/>
        <pt x="356" y="459" on="0"/>
        <pt x="375" y="439" on="0"/>
        <pt x="384" y="408" on="0"/>
        <pt x="375" y="390" on="1"/>
        <pt x="368" y="428" on="0"/>
        <pt x="304" y="461" on="0"/>
        <pt x="263" y="461" on="1"/>
        <pt x="211" y="461" on="0"/>
        <pt x="161" y="419" on="0"/>
        <pt x="161" y="387" on="1"/>
        <pt x="161" y="362" on="0"/>
        <pt x="194" y="328" on="0"/>
        <pt x="247" y="302" on="0"/>
        <pt x="277" y="288" on="1"/>
        <pt x="310" y="274" on="0"/>
        <pt x="373" y="238" on="0"/>
        <pt x="414" y="185" on="0"/>
        <pt x="414" y="145" on="1"/>
        <pt x="414" y="98" on="0"/>
        <pt x="363" y="27" on="0"/>
        <pt x="274" y="-11" on="0"/>
      </contour>
    </TTGlyph>
    <TTGlyph name="uni0074" xMin="40" yMin="-11" xMax="366" yMax="648">
      <contour>
        <pt x="210" y="-11" on="1"/>
        <pt x="169" y="-11" on="0"/>
        <pt x="112" y="14" on="0"/>
        <pt x="82" y="66" on="0"/>
        <pt x="82" y="107" on="1"/>
        <pt x="82" y="127" on="0"/>
        <pt x="89" y="183" on="0"/>
        <pt x="93" y="208" on="1"/>
        <pt x="139" y="492" on="1"/>
        <pt x="165" y="508" on="1"/>
        <pt x="366" y="508" on="1"/>
        <pt x="356" y="454" on="1"/>
        <pt x="40" y="454" on="1"/>
        <pt x="49" y="503" on="1"/>
        <pt x="54" y="503" on="1"/>
        <pt x="98" y="503" on="0"/>
        <pt x="154" y="527" on="0"/>
        <pt x="159" y="557" on="1"/>
        <pt x="175" y="648" on="1"/>
        <pt x="256" y="648" on="1"/>
        <pt x="181" y="205" on="1"/>
        <pt x="177" y="179" on="0"/>
        <pt x="170" y="125" on="0"/>
        <pt x="170" y="108" on="1"/>
        <pt x="170" y="76" on="0"/>
        <pt x="199" y="49" on="0"/>
        <pt x="230" y="49" on="1"/>
        <pt x="253" y="49" on="0"/>
        <pt x="304" y="65" on="0"/>
        <pt x="314" y="69" on="1"/>
        <pt x="304" y="12" on="1"/>
        <pt x="288" y="4" on="0"/>
        <pt x="241" y="-11" on="0"/>
      </contour>
    </TTGlyph>
    <TTGlyph name="uni0075" xMin="54" yMin="-10" xMax="581" yMax="508">
      <contour>
        <pt x="62" y="508" on="1"/>
        <pt x="246" y="508" on="1"/>
        <pt x="186" y="187" on="1"/>
        <pt x="182" y="162" on="0"/>
        <pt x="176" y="128" on="0"/>
        <pt x="176" y="116" on="1"/>
        <pt x="176" y="87" on="0"/>
        <pt x="203" y="53" on="0"/>
        <pt x="236" y="53" on="1"/>
        <pt x="284" y="53" on="0"/>
        <pt x="376" y="138" on="0"/>
        <pt x="425" y="224" on="1"/>
        <pt x="449" y="199" on="1"/>
        <pt x="415" y="136" on="0"/>
        <pt x="343" y="42" on="0"/>
        <pt x="260" y="-10" on="0"/>
        <pt x="209" y="-10" on="1"/>
        <pt x="153" y="-10" on="0"/>
        <pt x="86" y="52" on="0"/>
        <pt x="86" y="107" on="1"/>
        <pt x="86" y="121" on="0"/>
        <pt x="91" y="159" on="0"/>
        <pt x="95" y="183" on="1"/>
        <pt x="139" y="413" on="1"/>
        <pt x="144" y="437" on="0"/>
        <pt x="107" y="455" on="0"/>
        <pt x="69" y="460" on="1"/>
        <pt x="54" y="462" on="1"/>
      </contour>
      <contour>
        <pt x="480" y="-7" on="1"/>
        <pt x="444" y="-7" on="0"/>
        <pt x="396" y="37" on="0"/>
        <pt x="396" y="77" on="1"/>
        <pt x="396" y="91" on="0"/>
        <pt x="400" y="120" on="0"/>
        <pt x="405" y="141" on="1"/>
        <pt x="395" y="144" on="1"/>
        <pt x="458" y="508" on="1"/>
        <pt x="546" y="508" on="1"/>
        <pt x="485" y="161" on="1"/>
        <pt x="480" y="130" on="0"/>
        <pt x="474" y="91" on="0"/>
        <pt x="474" y="80" on="1"/>
        <pt x="474" y="53" on="0"/>
        <pt x="506" y="53" on="1"/>
        <pt x="529" y="53" on="0"/>
        <pt x="573" y="71" on="0"/>
        <pt x="581" y="74" on="1"/>
        <pt x="571" y="22" on="1"/>
        <pt x="555" y="11" on="0"/>
        <pt x="509" y="-7" on="0"/>
      </contour>
    </TTGlyph>
    <TTGlyph name="uni0076" xMin="22" yMin="0" xMax="510" yMax="508">
      <contour>
        <pt x="260" y="0" on="1"/>
        <pt x="168" y="0" on="1"/>
        <pt x="106" y="415" on="1"/>
        <pt x="103" y="438" on="0"/>
        <pt x="67" y="453" on="0"/>
        <pt x="32" y="460" on="1"/>
        <pt x="22" y="462" on="1"/>
        <pt x="29" y="508" on="1"/>
        <pt x="176" y="508" on="1"/>
        <pt x="242" y="32" on="1"/>
        <pt x="224" y="40" on="1"/>
        <pt x="250" y="99" on="0"/>
        <pt x="300" y="216" on="0"/>
        <pt x="351" y="333" on="0"/>
        <pt x="401" y="450" on="0"/>
        <pt x="426" y="508" on="1"/>
        <pt x="510" y="508" on="1"/>
        <pt x="510" y="498" on="1"/>
        <pt x="479" y="437" on="0"/>
        <pt x="417" y="313" on="0"/>
        <pt x="354" y="188" on="0"/>
        <pt x="292" y="63" on="0"/>
      </contour>
    </TTGlyph>
    <TTGlyph name="uni0077" xMin="22" yMin="0" xMax="773" yMax="508">
      <contour>
        <pt x="403" y="414" on="1"/>
        <pt x="427" y="428" on="1"/>
        <pt x="397" y="358" on="0"/>
        <pt x="334" y="217" on="0"/>
        <pt x="271" y="73" on="0"/>
        <pt x="238" y="0" on="1"/>
        <pt x="148" y="0" on="1"/>
        <pt x="106" y="415" on="1"/>
        <pt x="104" y="438" on="0"/>
        <pt x="67" y="453" on="0"/>
        <pt x="32" y="460" on="1"/>
        <pt x="22" y="462" on="1"/>
        <pt x="29" y="508" on="1"/>
        <pt x="176" y="508" on="1"/>
        <pt x="218" y="32" on="1"/>
        <pt x="198" y="40" on="1"/>
        <pt x="231" y="119" on="0"/>
        <pt x="297" y="276" on="0"/>
        <pt x="362" y="431" on="0"/>
        <pt x="394" y="508" on="1"/>
        <pt x="466" y="508" on="1"/>
        <pt x="534" y="32" on="1"/>
        <pt x="518" y="40" on="1"/>
        <pt x="540" y="99" on="0"/>
        <pt x="583" y="216" on="0"/>
        <pt x="626" y="333" on="0"/>
        <pt x="668" y="450" on="0"/>
        <pt x="689" y="508" on="1"/>
        <pt x="773" y="508" on="1"/>
        <pt x="773" y="498" on="1"/>
        <pt x="746" y="437" on="0"/>
        <pt x="692" y="313" on="0"/>
        <pt x="637" y="188" on="0"/>
        <pt x="582" y="63" on="0"/>
        <pt x="554" y="0" on="1"/>
        <pt x="464" y="0" on="1"/>
      </contour>
    </TTGlyph>
    <TTGlyph name="uni0078" xMin="2" yMin="-10" xMax="491" yMax="508">
      <contour>
        <pt x="283" y="249" on="1"/>
        <pt x="266" y="296" on="1"/>
        <pt x="405" y="508" on="1"/>
        <pt x="491" y="508" on="1"/>
        <pt x="491" y="498" on="1"/>
      </contour>
      <contour>
        <pt x="221" y="277" on="1"/>
        <pt x="242" y="227" on="1"/>
        <pt x="88" y="0" on="1"/>
        <pt x="2" y="0" on="1"/>
        <pt x="2" y="10" on="1"/>
      </contour>
      <contour>
        <pt x="336" y="158" on="1"/>
        <pt x="353" y="115" on="0"/>
        <pt x="375" y="68" on="0"/>
        <pt x="400" y="50" on="0"/>
        <pt x="420" y="50" on="1"/>
        <pt x="439" y="50" on="0"/>
        <pt x="476" y="68" on="0"/>
        <pt x="482" y="71" on="1"/>
        <pt x="477" y="19" on="1"/>
        <pt x="464" y="8" on="0"/>
        <pt x="424" y="-10" on="0"/>
        <pt x="392" y="-10" on="1"/>
        <pt x="359" y="-10" on="0"/>
        <pt x="313" y="18" on="0"/>
        <pt x="275" y="88" on="0"/>
        <pt x="251" y="150" on="1"/>
        <pt x="153" y="410" on="1"/>
        <pt x="143" y="438" on="0"/>
        <pt x="108" y="454" on="0"/>
        <pt x="65" y="460" on="1"/>
        <pt x="50" y="462" on="1"/>
        <pt x="57" y="508" on="1"/>
        <pt x="203" y="508" on="1"/>
      </contour>
    </TTGlyph>
    <TTGlyph name="uni0079" xMin="21" yMin="-223" xMax="511" yMax="508">
      <contour>
        <pt x="152" y="-223" on="1"/>
        <pt x="55" y="-223" on="1"/>
        <pt x="55" y="-203" on="1"/>
        <pt x="83" y="-165" on="0"/>
        <pt x="140" y="-90" on="0"/>
        <pt x="196" y="-14" on="0"/>
        <pt x="224" y="24" on="1"/>
        <pt x="236" y="58" on="1"/>
        <pt x="268" y="134" on="0"/>
        <pt x="332" y="284" on="0"/>
        <pt x="395" y="434" on="0"/>
        <pt x="427" y="508" on="1"/>
        <pt x="511" y="508" on="1"/>
        <pt x="511" y="498" on="1"/>
        <pt x="481" y="437" on="0"/>
        <pt x="419" y="313" on="0"/>
        <pt x="357" y="188" on="0"/>
        <pt x="295" y="64" on="0"/>
        <pt x="264" y="2" on="1"/>
        <pt x="249" y="-27" on="0"/>
        <pt x="221" y="-84" on="0"/>
        <pt x="193" y="-140" on="0"/>
        <pt x="166" y="-195" on="0"/>
      </contour>
      <contour>
        <pt x="271" y="64" on="1"/>
        <pt x="252" y="0" on="1"/>
        <pt x="212" y="-36" on="1"/>
        <pt x="106" y="415" on="1"/>
        <pt x="101" y="438" on="0"/>
        <pt x="67" y="453" on="0"/>
        <pt x="32" y="460" on="1"/>
        <pt x="21" y="462" on="1"/>
        <pt x="29" y="508" on="1"/>
        <pt x="176" y="508" on="1"/>
      </contour>
    </TTGlyph>
    <TTGlyph name="uni007A" xMin="12" yMin="-12" xMax="479" yMax="508">
      <contour>
        <pt x="305" y="-12" on="1"/>
        <pt x="264" y="-12" on="0"/>
        <pt x="191" y="22" on="0"/>
        <pt x="132" y="80" on="0"/>
        <pt x="110" y="115" on="1"/>
        <pt x="133" y="154" on="1"/>
        <pt x="157" y="130" on="0"/>
        <pt x="211" y="89" on="0"/>
        <pt x="272" y="65" on="0"/>
        <pt x="305" y="65" on="1"/>
        <pt x="338" y="65" on="0"/>
        <pt x="383" y="91" on="0"/>
        <pt x="412" y="148" on="0"/>
        <pt x="420" y="192" on="1"/>
        <pt x="464" y="182" on="1"/>
        <pt x="466" y="134" on="0"/>
        <pt x="447" y="61" on="0"/>
        <pt x="406" y="13" on="0"/>
        <pt x="345" y="-12" on="0"/>
      </contour>
      <contour>
        <pt x="59" y="0" on="1"/>
        <pt x="12" y="0" on="1"/>
        <pt x="18" y="60" on="1"/>
        <pt x="389" y="467" on="1"/>
        <pt x="401" y="454" on="1"/>
        <pt x="285" y="454" on="1"/>
        <pt x="242" y="454" on="0"/>
        <pt x="187" y="448" on="0"/>
        <pt x="158" y="429" on="0"/>
        <pt x="152" y="411" on="1"/>
        <pt x="132" y="346" on="1"/>
        <pt x="79" y="346" on="1"/>
        <pt x="108" y="508" on="1"/>
        <pt x="479" y="508" on="1"/>
        <pt x="469" y="453" on="1"/>
      </contour>
    </TTGlyph>
    <TTGlyph name="uni007B" xMin="30" yMin="-147" xMax="397" yMax="748">
      <contour>
        <pt x="254" y="-147" on="1"/>
        <pt x="193" y="-144" on="0"/>
        <pt x="91" y="-114" on="0"/>
        <pt x="30" y="-52" on="0"/>
        <pt x="30" y="-1" on="1"/>
        <pt x="30" y="34" on="0"/>
        <pt x="67" y="101" on="0"/>
        <pt x="123" y="166" on="0"/>
        <pt x="180" y="227" on="0"/>
        <pt x="200" y="255" on="1"/>
        <pt x="210" y="235" on="1"/>
        <pt x="59" y="299" on="1"/>
        <pt x="67" y="339" on="1"/>
        <pt x="226" y="376" on="1"/>
        <pt x="210" y="359" on="1"/>
        <pt x="201" y="389" on="0"/>
        <pt x="164" y="468" on="0"/>
        <pt x="134" y="555" on="0"/>
        <pt x="134" y="595" on="1"/>
        <pt x="134" y="642" on="0"/>
        <pt x="189" y="711" on="0"/>
        <pt x="302" y="748" on="0"/>
        <pt x="389" y="747" on="1"/>
        <pt x="397" y="699" on="1"/>
        <pt x="336" y="697" on="0"/>
        <pt x="259" y="668" on="0"/>
        <pt x="223" y="619" on="0"/>
        <pt x="223" y="586" on="1"/>
        <pt x="223" y="559" on="0"/>
        <pt x="238" y="502" on="0"/>
        <pt x="257" y="448" on="0"/>
        <pt x="272" y="401" on="0"/>
        <pt x="272" y="384" on="1"/>
        <pt x="272" y="365" on="0"/>
        <pt x="248" y="337" on="0"/>
        <pt x="185" y="320" on="0"/>
        <pt x="124" y="317" on="1"/>
        <pt x="123" y="312" on="1"/>
        <pt x="177" y="301" on="0"/>
        <pt x="233" y="280" on="0"/>
        <pt x="254" y="254" on="0"/>
        <pt x="254" y="237" on="1"/>
        <pt x="254" y="219" on="0"/>
        <pt x="227" y="179" on="0"/>
        <pt x="188" y="134" on="0"/>
        <pt x="149" y="84" on="0"/>
        <pt x="122" y="31" on="0"/>
        <pt x="122" y="2" on="1"/>
        <pt x="122" y="-47" on="0"/>
        <pt x="196" y="-93" on="0"/>
        <pt x="266" y="-101" on="1"/>
      </contour>
    </TTGlyph>
    <TTGlyph name="uni007D" xMin="-57" yMin="-149" xMax="310" yMax="746">
      <component glyphName="uni007B" x="340" y="599" scale="-1.0" flags="0x4"/>
    </TTGlyph>
    <TTGlyph name="uni2013" xMin="73" yMin="285" xMax="532" yMax="345">
      <contour>
        <pt x="83" y="345" on="1"/>
        <pt x="532" y="345" on="1"/>
        <pt x="522" y="285" on="1"/>
        <pt x="73" y="285" on="1"/>
      </contour>
    </TTGlyph>
    <TTGlyph name="uni2014" xMin="73" yMin="285" xMax="872" yMax="345">
      <contour>
        <pt x="83" y="345" on="1"/>
        <pt x="872" y="345" on="1"/>
        <pt x="862" y="285" on="1"/>
        <pt x="73" y="285" on="1"/>
      </contour>
    </TTGlyph>
    <TTGlyph name="uni2018" xMin="65" yMin="428" xMax="256" yMax="719">
      <component glyphName="uni2019" x="308" y="1143" scale="-1.0" flags="0x4"/>
    </TTGlyph>
    <TTGlyph name="uni2019" xMin="52" yMin="424" xMax="243" yMax="715">
      <contour>
        <pt x="109" y="424" on="1"/>
        <pt x="52" y="469" on="1"/>
        <pt x="82" y="489" on="0"/>
        <pt x="139" y="537" on="0"/>
        <pt x="180" y="589" on="0"/>
        <pt x="185" y="614" on="1"/>
        <pt x="196" y="607" on="1"/>
        <pt x="193" y="600" on="0"/>
        <pt x="186" y="596" on="0"/>
        <pt x="183" y="596" on="1"/>
        <pt x="150" y="596" on="0"/>
        <pt x="110" y="631" on="0"/>
        <pt x="110" y="656" on="1"/>
        <pt x="110" y="682" on="0"/>
        <pt x="146" y="715" on="0"/>
        <pt x="174" y="715" on="1"/>
        <pt x="195" y="715" on="0"/>
        <pt x="226" y="698" on="0"/>
        <pt x="243" y="667" on="0"/>
        <pt x="243" y="645" on="1"/>
        <pt x="243" y="610" on="0"/>
        <pt x="205" y="527" on="0"/>
        <pt x="144" y="451" on="0"/>
      </contour>
    </TTGlyph>
    <TTGlyph name="uni201C" xMin="65" yMin="428" xMax="446" yMax="719">
      <component glyphName="uni201D" x="498" y="1143" scale="-1.0" flags="0x4"/>
    </TTGlyph>
    <TTGlyph name="uni201D" xMin="52" yMin="424" xMax="433" yMax="715">
      <contour>
        <pt x="109" y="424" on="1"/>
        <pt x="52" y="469" on="1"/>
        <pt x="82" y="489" on="0"/>
        <pt x="139" y="537" on="0"/>
        <pt x="180" y="589" on="0"/>
        <pt x="185" y="614" on="1"/>
        <pt x="196" y="607" on="1"/>
        <pt x="193" y="600" on="0"/>
        <pt x="186" y="596" on="0"/>
        <pt x="183" y="596" on="1"/>
        <pt x="150" y="596" on="0"/>
        <pt x="110" y="631" on="0"/>
        <pt x="110" y="656" on="1"/>
        <pt x="110" y="682" on="0"/>
        <pt x="146" y="715" on="0"/>
        <pt x="174" y="715" on="1"/>
        <pt x="195" y="715" on="0"/>
        <pt x="226" y="698" on="0"/>
        <pt x="243" y="667" on="0"/>
        <pt x="243" y="645" on="1"/>
        <pt x="243" y="610" on="0"/>
        <pt x="205" y="527" on="0"/>
        <pt x="144" y="451" on="0"/>
      </contour>
      <contour>
        <pt x="299" y="424" on="1"/>
        <pt x="242" y="469" on="1"/>
        <pt x="272" y="489" on="0"/>
        <pt x="329" y="537" on="0"/>
        <pt x="370" y="589" on="0"/>
        <pt x="375" y="614" on="1"/>
        <pt x="386" y="607" on="1"/>
        <pt x="383" y="600" on="0"/>
        <pt x="376" y="596" on="0"/>
        <pt x="373" y="596" on="1"/>
        <pt x="340" y="596" on="0"/>
        <pt x="300" y="631" on="0"/>
        <pt x="300" y="656" on="1"/>
        <pt x="300" y="682" on="0"/>
        <pt x="336" y="715" on="0"/>
        <pt x="364" y="715" on="1"/>
        <pt x="385" y="715" on="0"/>
        <pt x="416" y="698" on="0"/>
        <pt x="433" y="667" on="0"/>
        <pt x="433" y="645" on="1"/>
        <pt x="433" y="610" on="0"/>
        <pt x="395" y="527" on="0"/>
        <pt x="334" y="451" on="0"/>
      </contour>
    </TTGlyph>
    <TTGlyph name="uni2044" xMin="-161" yMin="0" xMax="605" yMax="710">
      <contour>
        <pt x="530" y="710" on="1"/>
        <pt x="605" y="710" on="1"/>
        <pt x="-86" y="0" on="1"/>
        <pt x="-161" y="0" on="1"/>
      </contour>
    </TTGlyph>
    <TTGlyph name="uni2212" xMin="67" yMin="308" xMax="493" yMax="374">
      <contour>
        <pt x="493" y="374" on="1"/>
        <pt x="481" y="308" on="1"/>
        <pt x="67" y="308" on="1"/>
        <pt x="79" y="374" on="1"/>
      </contour>
    </TTGlyph>
    <TTGlyph name="uniFB02" xMin="43" yMin="-223" xMax="594" yMax="752">
      <contour>
        <pt x="52" y="508" on="1"/>
        <pt x="395" y="508" on="1"/>
        <pt x="385" y="454" on="1"/>
        <pt x="43" y="454" on="1"/>
      </contour>
      <contour>
        <pt x="368" y="696" on="1"/>
        <pt x="320" y="696" on="0"/>
        <pt x="263" y="638" on="0"/>
        <pt x="251" y="563" on="1"/>
        <pt x="125" y="-223" on="1"/>
        <pt x="55" y="-223" on="1"/>
        <pt x="156" y="557" on="1"/>
        <pt x="166" y="629" on="0"/>
        <pt x="228" y="714" on="0"/>
        <pt x="318" y="752" on="0"/>
        <pt x="370" y="752" on="1"/>
        <pt x="436" y="752" on="0"/>
        <pt x="524" y="705" on="0"/>
        <pt x="547" y="683" on="1"/>
        <pt x="517" y="621" on="1"/>
        <pt x="497" y="653" on="0"/>
        <pt x="424" y="696" on="0"/>
      </contour>
      <contour>
        <pt x="484" y="103" on="1"/>
        <pt x="483" y="96" on="0"/>
        <pt x="481" y="83" on="0"/>
        <pt x="481" y="78" on="1"/>
        <pt x="481" y="64" on="0"/>
        <pt x="496" y="53" on="0"/>
        <pt x="512" y="53" on="1"/>
        <pt x="533" y="53" on="0"/>
        <pt x="574" y="67" on="0"/>
        <pt x="588" y="74" on="1"/>
        <pt x="578" y="22" on="1"/>
        <pt x="563" y="12" on="0"/>
        <pt x="516" y="-7" on="0"/>
        <pt x="484" y="-7" on="1"/>
        <pt x="444" y="-7" on="0"/>
        <pt x="393" y="35" on="0"/>
        <pt x="393" y="74" on="1"/>
        <pt x="393" y="85" on="0"/>
        <pt x="397" y="113" on="0"/>
        <pt x="399" y="124" on="1"/>
        <pt x="499" y="696" on="1"/>
        <pt x="417" y="735" on="1"/>
        <pt x="594" y="735" on="1"/>
      </contour>
    </TTGlyph>
</ttFont>
